<svg width="39" height="38" viewBox="0 0 39 38" fill="none" xmlns="http://www.w3.org/2000/svg">
<path d="M19.8835 38C9.34217 38 0.76709 29.4771 0.76709 19C0.76709 8.52286 9.34217 0 19.8835 0C30.4249 0 38.9999 8.52286 38.9999 19C38.9999 29.4771 30.4249 38 19.8835 38Z" fill="#EFEFEF"/>
<path d="M19.8835 28.5C19.1189 28.5 18.5181 27.9029 18.5181 27.1429V10.8571C18.5181 10.0971 19.1189 9.5 19.8835 9.5C20.6482 9.5 21.249 10.0971 21.249 10.8571V27.1429C21.249 27.9029 20.6482 28.5 19.8835 28.5Z" fill="#E55F4B"/>
<path d="M28.0762 20.3578H11.6907C10.926 20.3578 10.3252 19.7607 10.3252 19.0007C10.3252 18.2407 10.926 17.6436 11.6907 17.6436H28.0762C28.8408 17.6436 29.4416 18.2407 29.4416 19.0007C29.4416 19.7607 28.8408 20.3578 28.0762 20.3578Z" fill="#E55F4B"/>
</svg>
