<svg width="23" height="23" viewBox="0 0 23 23" fill="none" xmlns="http://www.w3.org/2000/svg">
<path d="M6.60877 15.7237C7.16828 15.7237 7.62185 15.2681 7.62185 14.7061C7.62185 14.1441 7.16828 13.6885 6.60877 13.6885C6.04927 13.6885 5.5957 14.1441 5.5957 14.7061C5.5957 15.2681 6.04927 15.7237 6.60877 15.7237Z" fill="#F65C5C"/>
<path d="M8.12057 12.8969C8.39588 12.8969 8.61906 12.6728 8.61906 12.3962C8.61906 12.1197 8.39588 11.8955 8.12057 11.8955C7.84525 11.8955 7.62207 12.1197 7.62207 12.3962C7.62207 12.6728 7.84525 12.8969 8.12057 12.8969Z" fill="#F65C5C"/>
<path fill-rule="evenodd" clip-rule="evenodd" d="M22.9951 13.1235V12.9781C23.0016 12.8328 23.0016 12.6873 22.9951 12.542V12.009C22.905 11.8804 22.8244 11.7455 22.7539 11.6051V11.169C22.7539 11.0237 22.7539 10.8944 22.6253 10.7652C22.5726 10.6506 22.5296 10.5317 22.4966 10.4099V10.3291C22.4353 10.2088 22.3816 10.0847 22.3358 9.95762C22.2883 9.84701 22.2346 9.73916 22.175 9.63457L21.982 9.26307V9.1177C21.5312 8.38541 20.991 7.71258 20.374 7.11482H15.9519L16.9971 3.17367C17.0766 2.89835 17.2617 2.66598 17.5117 2.52758C17.6403 2.46814 17.7802 2.43736 17.9217 2.43736C18.0633 2.43736 18.2032 2.46814 18.3318 2.52758L21.3388 3.67439L22.0624 1.80073L19.0554 0.201658C18.6597 0.0490976 18.2365 -0.0181783 17.8132 0.0041968C17.3899 0.0265719 16.9761 0.138098 16.5985 0.331536C16.2209 0.524974 15.8881 0.796001 15.6215 1.12702C15.355 1.45805 15.1607 1.84167 15.0513 2.25299L13.8775 6.74332H10.388C10.2699 5.45406 9.66693 4.25851 8.7019 3.40022C7.73688 2.54192 6.4824 2.08545 5.194 2.12378C3.86699 2.08005 2.57653 2.56477 1.60369 3.47237C0.630844 4.37997 0.0544345 5.63692 3.29747e-06 6.96945C-0.00114346 7.95487 0.296841 8.91722 0.854215 9.72816C1.41159 10.5391 2.20186 11.1601 3.11962 11.5082C3.128 11.6427 3.128 11.7776 3.11962 11.912V12.4128C3.1131 12.5581 3.1131 12.7036 3.11962 12.8489V13.5757C3.21983 16.118 4.30159 18.5212 6.13566 20.276C7.96972 22.0308 10.412 22.9993 12.9448 22.9763C15.5242 23.0591 18.031 22.1108 19.9152 20.3393C21.7994 18.5679 22.907 16.118 22.9951 13.5273V13.1235ZM12.9448 20.9573C10.8984 21.0405 8.90261 20.3049 7.39533 18.912C5.88805 17.5192 4.9923 15.5826 4.90456 13.5273C4.91537 11.7613 5.58034 10.0627 6.76989 8.76235H19.1358C20.3383 10.0857 20.9988 11.8164 20.9851 13.608C20.8768 15.6491 19.9721 17.5651 18.4671 18.9407C16.9621 20.3164 14.978 21.0409 12.9448 20.9573ZM2.01007 7.03406C2.03058 6.63154 2.13026 6.23708 2.30333 5.87345C2.4764 5.50982 2.71944 5.18421 3.01844 4.91542C3.31744 4.64662 3.66646 4.43996 4.04538 4.30735C4.4243 4.17475 4.82562 4.11882 5.22616 4.14281C5.98645 4.10465 6.73419 4.3485 7.32716 4.82797C7.92014 5.30745 8.317 5.98911 8.44226 6.74332H5.91763C5.29537 7.33619 4.75459 8.00975 4.30958 8.7462V8.87542L4.11661 9.24692C4.06699 9.34068 4.024 9.43783 3.98797 9.53766C3.45086 9.36004 2.97731 9.02827 2.6258 8.58335C2.2743 8.13842 2.06024 7.59982 2.01007 7.03406Z" fill="#F65C5C"/>
</svg>
