<svg width="16" height="20" viewBox="0 0 16 20" fill="none" xmlns="http://www.w3.org/2000/svg">
<path fill-rule="evenodd" clip-rule="evenodd" d="M3 0C2.46957 0 1.96086 0.210714 1.58579 0.585786C1.21071 0.960859 1 1.46957 1 2V3C0.734784 3 0.48043 3.10536 0.292893 3.29289C0.105357 3.48043 0 3.73478 0 4C0 4.26522 0.105357 4.51957 0.292893 4.70711C0.48043 4.89464 0.734784 5 1 5V6C0.734784 6 0.48043 6.10536 0.292893 6.29289C0.105357 6.48043 0 6.73478 0 7C0 7.26522 0.105357 7.51957 0.292893 7.70711C0.48043 7.89464 0.734784 8 1 8V9C0.734784 9 0.48043 9.10536 0.292893 9.29289C0.105357 9.48043 0 9.73478 0 10C0 10.2652 0.105357 10.5196 0.292893 10.7071C0.48043 10.8946 0.734784 11 1 11V12C0.734784 12 0.48043 12.1054 0.292893 12.2929C0.105357 12.4804 0 12.7348 0 13C0 13.2652 0.105357 13.5196 0.292893 13.7071C0.48043 13.8946 0.734784 14 1 14V15C0.734784 15 0.48043 15.1054 0.292893 15.2929C0.105357 15.4804 0 15.7348 0 16C0 16.2652 0.105357 16.5196 0.292893 16.7071C0.48043 16.8946 0.734784 17 1 17V18C1 18.5304 1.21071 19.0391 1.58579 19.4142C1.96086 19.7893 2.46957 20 3 20H14C14.5304 20 15.0391 19.7893 15.4142 19.4142C15.7893 19.0391 16 18.5304 16 18V2C16 1.46957 15.7893 0.960859 15.4142 0.585786C15.0391 0.210714 14.5304 0 14 0H3ZM6 8C6 7.20435 6.31607 6.44129 6.87868 5.87868C7.44129 5.31607 8.20435 5 9 5C9.79565 5 10.5587 5.31607 11.1213 5.87868C11.6839 6.44129 12 7.20435 12 8C12 8.79565 11.6839 9.55871 11.1213 10.1213C10.5587 10.6839 9.79565 11 9 11C8.20435 11 7.44129 10.6839 6.87868 10.1213C6.31607 9.55871 6 8.79565 6 8ZM5 15C5 14.2044 5.31607 13.4413 5.87868 12.8787C6.44129 12.3161 7.20435 12 8 12H10C10.7956 12 11.5587 12.3161 12.1213 12.8787C12.6839 13.4413 13 14.2044 13 15C13 15.2652 12.8946 15.5196 12.7071 15.7071C12.5196 15.8946 12.2652 16 12 16H6C5.73478 16 5.48043 15.8946 5.29289 15.7071C5.10536 15.5196 5 15.2652 5 15Z" fill="#E07956"/>
</svg>
