<svg width="23" height="20" viewBox="0 0 23 20" fill="none" xmlns="http://www.w3.org/2000/svg">
<path d="M3.33333 20V17.7778H18.8889V20H3.33333ZM3.33333 16.1111L1.91667 7.19445C1.87963 7.19445 1.83778 7.19926 1.79111 7.20889C1.74445 7.21852 1.70296 7.22297 1.66667 7.22222C1.20371 7.22222 0.810372 7.06 0.486669 6.73556C0.162965 6.41111 0.000743266 6.01778 2.52525e-06 5.55556C-0.000738215 5.09334 0.161484 4.7 0.486669 4.37556C0.811854 4.05111 1.20519 3.88889 1.66667 3.88889C2.12815 3.88889 2.52185 4.05111 2.84778 4.37556C3.17371 4.7 3.33556 5.09334 3.33333 5.55556C3.33333 5.68519 3.31926 5.80556 3.29111 5.91667C3.26296 6.02778 3.23074 6.12963 3.19445 6.22222L6.66667 7.77778L10.1389 3.02778C9.93518 2.87963 9.76852 2.68519 9.63889 2.44445C9.50926 2.20371 9.44444 1.94445 9.44444 1.66667C9.44444 1.20371 9.60666 0.810003 9.93111 0.485558C10.2556 0.161114 10.6489 -0.00073821 11.1111 2.531e-06C11.5733 0.000743272 11.967 0.162965 12.2922 0.486669C12.6174 0.810373 12.7793 1.20371 12.7778 1.66667C12.7778 1.94445 12.713 2.20371 12.5833 2.44445C12.4537 2.68519 12.287 2.87963 12.0833 3.02778L15.5555 7.77778L19.0278 6.22222C18.9907 6.12963 18.9581 6.02778 18.93 5.91667C18.9018 5.80556 18.8881 5.68519 18.8889 5.55556C18.8889 5.0926 19.0511 4.69889 19.3755 4.37445C19.7 4.05 20.0933 3.88815 20.5555 3.88889C21.0178 3.88963 21.4115 4.05185 21.7367 4.37556C22.0618 4.69926 22.2237 5.0926 22.2222 5.55556C22.2207 6.01852 22.0589 6.41222 21.7367 6.73667C21.4144 7.06111 21.0207 7.22297 20.5555 7.22222C20.5185 7.22222 20.477 7.21778 20.4311 7.20889C20.3852 7.2 20.3433 7.19519 20.3055 7.19445L18.8889 16.1111H3.33333Z" fill="#F65C5C"/>
</svg>
