<svg width="26" height="20" viewBox="0 0 26 20" fill="none" xmlns="http://www.w3.org/2000/svg">
<path d="M8.28932 18.0023L4.61538 11.6188H2.61768V18.0023H0V2.04363H5.51091C6.73555 2.04363 7.76884 2.25794 8.61079 2.68657C9.46804 3.1152 10.1033 3.68925 10.5166 4.40873C10.9453 5.1282 11.1596 5.93188 11.1596 6.81975C11.1596 7.86069 10.8535 8.8098 10.2411 9.66705C9.64409 10.509 8.71795 11.0831 7.46269 11.3892L11.4122 18.0023H8.28932ZM2.61768 9.52928H5.51091C6.49063 9.52928 7.22541 9.28434 7.71527 8.79449C8.22044 8.30464 8.47302 7.64638 8.47302 6.81975C8.47302 5.99311 8.22809 5.35017 7.73823 4.89093C7.24838 4.41638 6.50593 4.17911 5.51091 4.17911H2.61768V9.52928ZM25.2775 13.4558C25.2775 14.2212 25.0862 14.9407 24.7034 15.6142C24.336 16.2878 23.7849 16.8542 23.0502 17.3134C22.3307 17.7727 21.4735 18.0482 20.4784 18.1401V20H18.9859V18.1401C17.547 18.0023 16.3835 17.5507 15.4956 16.7853C14.6078 16.0199 14.1638 15.0096 14.1638 13.7543H16.9652C17.0111 14.3513 17.2025 14.8489 17.5392 15.2468C17.8761 15.6296 18.3583 15.8744 18.9859 15.9816V10.93C17.9603 10.6698 17.1259 10.4095 16.483 10.1493C15.84 9.87371 15.289 9.44508 14.8297 8.86338C14.3858 8.28167 14.1638 7.48565 14.1638 6.47532C14.1638 5.20475 14.6078 4.15614 15.4956 3.32951C16.3835 2.48756 17.547 1.9977 18.9859 1.85993V0H20.4784V1.85993C21.8255 1.98239 22.9048 2.41102 23.7161 3.14581C24.5427 3.86529 25.0097 4.86032 25.1167 6.13089H22.3154C22.2694 5.65633 22.0857 5.23536 21.7643 4.86797C21.4428 4.48526 21.0143 4.22503 20.4784 4.08726V9.04707C21.5041 9.29201 22.3383 9.55224 22.9813 9.82778C23.6242 10.088 24.1677 10.509 24.6116 11.0907C25.0556 11.6571 25.2775 12.4455 25.2775 13.4558ZM16.8274 6.33754C16.8274 6.96517 17.0111 7.45504 17.3785 7.80712C17.7613 8.1592 18.297 8.44241 18.9859 8.65672V4.01837C18.3277 4.09491 17.7996 4.33219 17.4015 4.7302C17.0188 5.1282 16.8274 5.66399 16.8274 6.33754ZM20.4784 15.9816C21.152 15.8744 21.6802 15.6066 22.0628 15.178C22.4455 14.7341 22.6368 14.2059 22.6368 13.5936C22.6368 12.9812 22.4455 12.5067 22.0628 12.1699C21.6954 11.8179 21.1673 11.5346 20.4784 11.3203V15.9816Z" fill="#F6B23C"/>
</svg>
