<svg width="17" height="15" viewBox="0 0 17 15" fill="none" xmlns="http://www.w3.org/2000/svg">
<path d="M5.91813 8.62549H6.88578V5.46507H5.91813V8.62549ZM2.25171 11.3745V7.70528C1.58404 7.42058 1.04216 7.01306 0.626068 6.48275C0.208689 5.95243 0 5.36787 0 4.72907C0 3.8766 0.350288 3.15078 1.05086 2.55163C1.75015 1.95193 2.59942 1.65208 3.59868 1.65208C3.79221 1.65208 3.98671 1.66584 4.18217 1.69338C4.37764 1.72091 4.57213 1.75533 4.76566 1.79663L4.93306 1.82885L5.02596 1.70081C5.37947 1.20023 5.83233 0.79162 6.38453 0.474972C6.93674 0.158324 7.55023 0 8.225 0C8.89977 0 9.51326 0.158324 10.0655 0.474972C10.6177 0.79162 11.0767 1.20023 11.4424 1.70081L11.5353 1.82802L11.6843 1.79663C11.865 1.75533 12.0491 1.72091 12.2369 1.69338C12.4246 1.66584 12.6168 1.65208 12.8136 1.65208C13.8251 1.65208 14.684 1.95193 15.3904 2.55163C16.0968 3.15134 16.45 3.88238 16.45 4.74476C16.45 5.38357 16.2445 5.96537 15.8336 6.49018C15.4233 7.01499 14.8782 7.41975 14.1983 7.70446V11.3737L2.25171 11.3745ZM9.58358 8.62632H10.5512V5.46507H9.58358V8.62632ZM2.25171 14.8687V12.2006H14.1983V14.8687H2.25171Z" fill="black" fill-opacity="0.65"/>
</svg>
