<svg width="22" height="22" viewBox="0 0 22 22" fill="none" xmlns="http://www.w3.org/2000/svg">
<rect x="0.399902" y="0.200195" width="21.6" height="21.6" rx="10.8" fill="#EFEFEF"/>
<path d="M5.86637 17C5.67748 17 5.51926 16.936 5.39171 16.808C5.26415 16.68 5.20015 16.5218 5.19971 16.3333V14.7167C5.19971 14.5389 5.23304 14.3693 5.29971 14.208C5.36637 14.0467 5.46082 13.9051 5.58304 13.7833L13.9997 5.38333C14.133 5.26111 14.2804 5.16667 14.4417 5.1C14.603 5.03333 14.7724 5 14.9497 5C15.127 5 15.2993 5.03333 15.4664 5.1C15.6335 5.16667 15.7779 5.26667 15.8997 5.4L16.8164 6.33333C16.9497 6.45556 17.0468 6.6 17.1077 6.76667C17.1686 6.93333 17.1993 7.1 17.1997 7.26667C17.1997 7.44444 17.169 7.614 17.1077 7.77533C17.0464 7.93667 16.9493 8.08378 16.8164 8.21667L8.41637 16.6167C8.29415 16.7389 8.15237 16.8333 7.99104 16.9C7.82971 16.9667 7.66037 17 7.48304 17H5.86637ZM14.933 8.2L15.8664 7.26667L14.933 6.33333L13.9997 7.26667L14.933 8.2Z" fill="#616161"/>
</svg>
