<svg width="19" height="19" viewBox="0 0 19 19" fill="none" xmlns="http://www.w3.org/2000/svg">
<path d="M0 18.1923V13.8969L13.341 0.581143C13.5432 0.395851 13.7665 0.252671 14.0111 0.151603C14.2557 0.0505343 14.5124 0 14.7812 0C15.0501 0 15.3112 0.0505343 15.5645 0.151603C15.8179 0.252671 16.0369 0.404273 16.2215 0.60641L17.6112 2.02137C17.8133 2.20666 17.9609 2.42564 18.0538 2.67831C18.1468 2.93098 18.193 3.18365 18.1923 3.43632C18.1923 3.70584 18.1461 3.96289 18.0538 4.20748C17.9615 4.45206 17.814 4.67509 17.6112 4.87655L4.29541 18.1923H0ZM14.756 4.85128L16.1709 3.43632L14.756 2.02137L13.341 3.43632L14.756 4.85128Z" fill="#757575"/>
</svg>
