<svg width="22" height="22" viewBox="0 0 22 22" fill="none" xmlns="http://www.w3.org/2000/svg">
<rect x="0.399902" y="0.200195" width="21.6" height="21.6" rx="10.8" fill="#E55F4B" fill-opacity="0.2"/>
<path d="M13.1635 5.97765L13.3666 7.32615H16.1152C16.2531 7.32615 16.3853 7.37867 16.4828 7.47215C16.5802 7.56563 16.635 7.69242 16.635 7.82462C16.635 7.95682 16.5802 8.0836 16.4828 8.17708C16.3853 8.27056 16.2531 8.32308 16.1152 8.32308H15.5823L14.9772 15.0922C14.9405 15.5042 14.9107 15.8432 14.8629 16.117C14.8144 16.4021 14.7402 16.6574 14.5954 16.894C14.3679 17.2656 14.0298 17.5635 13.6244 17.7493C13.3666 17.867 13.0949 17.9155 12.7941 17.9381C12.5051 17.96 12.151 17.96 11.7199 17.96H10.1148C9.68373 17.96 9.32959 17.96 9.04059 17.9381C8.7398 17.9155 8.46813 17.867 8.21031 17.7493C7.80494 17.5635 7.4668 17.2656 7.23935 16.894C7.09381 16.6574 7.02104 16.4021 6.97184 16.117C6.92402 15.8425 6.89422 15.5042 6.85748 15.0922L6.25245 8.32308H5.7195C5.58164 8.32308 5.44943 8.27056 5.35195 8.17708C5.25448 8.0836 5.19971 7.95682 5.19971 7.82462C5.19971 7.69242 5.25448 7.56563 5.35195 7.47215C5.44943 7.37867 5.58164 7.32615 5.7195 7.32615H8.46813L8.67119 5.97765L8.67882 5.93711C8.80495 5.41206 9.27484 5 9.86393 5H11.9708C12.5599 5 13.0298 5.41206 13.1559 5.93711L13.1635 5.97765ZM9.5181 7.32615H12.3159L12.1385 6.1458C12.1052 6.03481 12.0207 5.99692 11.9701 5.99692H9.86462C9.81403 5.99692 9.72948 6.03481 9.69621 6.1458L9.5181 7.32615ZM10.3976 10.4831C10.3976 10.3509 10.3428 10.2241 10.2453 10.1306C10.1479 10.0371 10.0156 9.98462 9.87779 9.98462C9.73993 9.98462 9.60772 10.0371 9.51024 10.1306C9.41277 10.2241 9.358 10.3509 9.358 10.4831V13.8062C9.358 13.9384 9.41277 14.0651 9.51024 14.1586C9.60772 14.2521 9.73993 14.3046 9.87779 14.3046C10.0156 14.3046 10.1479 14.2521 10.2453 14.1586C10.3428 14.0651 10.3976 13.9384 10.3976 13.8062V10.4831ZM12.4767 10.4831C12.4767 10.3509 12.422 10.2241 12.3245 10.1306C12.227 10.0371 12.0948 9.98462 11.9569 9.98462C11.8191 9.98462 11.6869 10.0371 11.5894 10.1306C11.4919 10.2241 11.4371 10.3509 11.4371 10.4831V13.8062C11.4371 13.9384 11.4919 14.0651 11.5894 14.1586C11.6869 14.2521 11.8191 14.3046 11.9569 14.3046C12.0948 14.3046 12.227 14.2521 12.3245 14.1586C12.422 14.0651 12.4767 13.9384 12.4767 13.8062V10.4831Z" fill="#E55F4B" fill-opacity="0.6"/>
</svg>
