<svg width="22" height="26" viewBox="0 0 22 26" fill="none" xmlns="http://www.w3.org/2000/svg">
<path d="M19.2432 11.8448C18.8939 11.4114 18.4687 11.0359 18.0739 10.6603C17.0565 9.79361 15.9024 9.17248 14.9306 8.26246C12.668 6.15351 12.1668 2.6723 13.6094 0C12.1668 0.332232 10.9065 1.08336 9.82831 1.90672C5.89532 4.91125 4.34642 10.2125 6.19902 14.7626C6.25977 14.9071 6.32051 15.0515 6.32051 15.2393C6.32051 15.5571 6.09273 15.846 5.78902 15.9616C5.43976 16.106 5.07531 16.0193 4.78679 15.7882C4.70061 15.7196 4.62853 15.6363 4.5742 15.5427C2.85826 13.4771 2.58493 10.5159 3.73901 8.1469C1.20306 10.1114 -0.178797 13.4337 0.0186122 16.5682C0.109724 17.2905 0.200836 18.0127 0.458986 18.735C0.67158 19.6017 1.08158 20.4684 1.53714 21.2339C3.17715 23.7329 6.0168 25.5241 9.06905 25.8852C12.3187 26.2752 15.7961 25.7118 18.2865 23.574C21.0654 21.1762 22.0373 17.3338 20.6099 14.0404L20.4125 13.6648C20.0936 13.0004 19.2432 11.8448 19.2432 11.8448ZM14.4446 20.945C14.0194 21.2917 13.3209 21.6673 12.7743 21.8117C11.0735 22.3895 9.37275 21.5806 8.37052 20.6273C10.1776 20.2228 11.2557 18.9516 11.5746 17.6661C11.8328 16.5105 11.3468 15.5571 11.1494 14.4449C10.9672 13.3759 10.9976 12.4659 11.4076 11.4692C11.6961 12.0181 11.9998 12.567 12.3643 13.0004C13.5335 14.4449 15.3709 15.0804 15.7658 17.0449C15.8265 17.2472 15.8569 17.4494 15.8569 17.6661C15.9024 18.8505 15.3558 20.1506 14.4446 20.945Z" fill="#E55F4B"/>
</svg>
