<svg width="65" height="25" viewBox="0 0 65 25" fill="none" xmlns="http://www.w3.org/2000/svg">
<path d="M53.5979 19.4803C53.5579 19.4803 53.5279 19.4703 53.5079 19.4503L53.3879 19.3903C53.3279 19.3903 53.2479 19.3903 53.1479 19.3903C53.0679 19.3903 52.9779 19.3803 52.8779 19.3603C52.8579 19.3403 52.8479 19.2903 52.8479 19.2103C52.8479 19.2503 52.8579 19.2203 52.8779 19.1203C52.8979 19.0203 52.9279 18.8503 52.9679 18.6103V18.4903C52.9679 18.3903 52.9579 18.3103 52.9379 18.2503L52.8479 17.9803C52.8479 17.9803 52.8679 17.9403 52.9079 17.8603L52.9679 17.7103C52.9479 17.6703 52.9379 17.5803 52.9379 17.4403L52.9979 17.2903V17.0503L53.0879 16.7503L52.8779 16.6303L53.0279 16.3003L52.9379 16.1203C52.9779 16.0203 53.0379 15.9303 53.1179 15.8503V15.8203C53.0179 15.7403 52.9079 15.6203 52.7879 15.4603L52.8179 15.1003C52.8779 15.0403 52.9179 14.9903 52.9379 14.9503C52.9379 14.8303 52.9279 14.7503 52.9079 14.7103L52.8179 14.5303C52.8179 14.4903 52.8479 14.4103 52.9079 14.2903C52.9679 14.1903 52.9979 14.1103 52.9979 14.0503L52.8479 13.8103C52.7879 13.7503 52.7479 13.6903 52.7279 13.6303V13.1203C52.7679 13.1003 52.8179 13.0603 52.8779 13.0003C52.8379 12.9203 52.7679 12.8403 52.6679 12.7603C52.7079 12.7203 52.7279 12.6603 52.7279 12.5803C52.7279 12.5203 52.7179 12.4503 52.6979 12.3703C52.6779 12.2903 52.6479 12.2103 52.6079 12.1303C52.8079 12.0103 52.9479 11.9703 53.0279 12.0103L53.1179 11.9803C53.1379 11.9403 53.1479 11.9203 53.1479 11.9203C53.1479 11.9003 53.1479 11.8903 53.1479 11.8903C53.1479 11.8103 53.0879 11.7303 52.9679 11.6503H52.6979C52.6979 11.6303 52.6879 11.6203 52.6679 11.6203C52.6679 11.6003 52.6679 11.5803 52.6679 11.5603C52.6679 11.4803 52.6979 11.3803 52.7579 11.2603L52.7279 11.0503C52.7079 11.0303 52.6979 10.8803 52.6979 10.6003C52.6979 10.5003 52.6979 10.3903 52.6979 10.2703C52.6979 10.1503 52.6879 10.0203 52.6679 9.88031C52.7879 9.88031 52.8679 9.86031 52.9079 9.82031C52.8679 9.80031 52.8279 9.72031 52.7879 9.58031V9.52031C52.7879 9.46031 52.7479 9.38031 52.6679 9.28031V8.80031H52.7279C52.7879 8.80031 52.8579 8.78031 52.9379 8.74031C53.0379 8.68031 53.0879 8.64031 53.0879 8.62031C53.0879 8.52031 52.9079 8.49031 52.5479 8.53031C52.6479 8.37031 52.6779 8.25031 52.6379 8.17031L52.5479 7.99031C52.5479 7.93031 52.5879 7.87031 52.6679 7.81031L52.7279 7.66031V7.54031L52.5179 6.73031C52.5179 6.61031 52.6079 6.45031 52.7879 6.25031C52.7879 6.21031 52.7679 6.17031 52.7279 6.13031C52.8279 6.09031 52.8979 6.05031 52.9379 6.01031V5.95031C52.8579 5.91031 52.7879 5.89031 52.7279 5.89031C52.6079 5.71031 52.5479 5.58031 52.5479 5.50031C52.5479 5.46031 52.5679 5.42031 52.6079 5.38031C52.6279 5.36031 52.6379 5.32031 52.6379 5.26031L52.6079 4.51031C52.5479 4.47031 52.4979 4.39031 52.4579 4.27031C52.4579 4.27031 52.5079 4.15031 52.6079 3.91031C52.5679 3.39031 52.5279 2.99031 52.4879 2.71031C52.4679 2.41031 52.4579 2.23031 52.4579 2.17031C52.4579 2.11031 52.4379 2.00031 52.3979 1.84031C52.3579 1.68031 52.3379 1.60031 52.3379 1.60031L52.3679 1.39031C52.4079 1.35031 52.4679 1.32031 52.5479 1.30031H52.7579C52.7579 1.28031 52.7979 1.26031 52.8779 1.24031C52.9179 1.24031 52.9579 1.35031 52.9979 1.57031C52.9979 1.67031 53.0479 1.72031 53.1479 1.72031C53.2679 1.72031 53.3079 1.60031 53.2679 1.36031L53.6879 1.27031C53.7479 1.33031 53.8379 1.39031 53.9579 1.45031C54.0579 1.45031 54.1079 1.40031 54.1079 1.30031V1.21031L54.3479 1.18031L54.5279 1.24031C54.7879 1.24031 54.9279 1.24031 54.9479 1.24031V1.21031C54.9479 1.21031 54.9479 1.22031 54.9479 1.24031V1.27031C54.9479 1.39031 55.0179 1.48031 55.1579 1.54031H55.3079C55.3479 1.60031 55.3979 1.65031 55.4579 1.69031H55.5479C55.5679 1.69031 55.5779 1.67031 55.5779 1.63031C55.4979 1.51031 55.4479 1.39031 55.4279 1.27031V1.15031L55.4879 1.09031C55.5679 1.13031 55.6179 1.18031 55.6379 1.24031L55.9379 1.12031C55.9979 1.12031 56.0679 1.13031 56.1479 1.15031L56.4479 1.18031L56.5379 1.51031C56.6379 1.59031 56.7479 1.71031 56.8679 1.87031C56.8479 1.85031 56.8279 1.93031 56.8079 2.11031C56.7479 2.13031 56.7179 2.18031 56.7179 2.26031C56.7179 2.30031 56.7279 2.37031 56.7479 2.47031C56.7679 2.57031 56.7979 2.69031 56.8379 2.83031L56.9879 3.13031V3.28031C57.0879 3.54031 57.1379 3.88031 57.1379 4.30031C57.1379 4.64031 57.2079 4.87031 57.3479 4.99031C57.3479 5.15031 57.4179 5.48031 57.5579 5.98031L57.7079 6.28031C57.6279 6.40031 57.5579 6.58031 57.4979 6.82031C57.5179 6.86031 57.5279 6.91031 57.5279 6.97031C57.5279 7.03031 57.5279 7.08031 57.5279 7.12031C57.5479 7.20031 57.5579 7.28031 57.5579 7.36031C57.5779 7.42031 57.5879 7.48031 57.5879 7.54031C57.5879 7.60031 57.5879 7.66031 57.5879 7.72031C57.6079 7.78031 57.6479 7.84031 57.7079 7.90031C57.8079 8.02031 57.8679 8.36031 57.8879 8.92031C57.9879 8.96031 58.0479 9.01031 58.0679 9.07031C58.0479 9.15031 58.0679 9.22031 58.1279 9.28031C58.2479 9.34031 58.3079 9.38031 58.3079 9.40031V9.61031C58.3879 9.75031 58.4379 9.86031 58.4579 9.94031C58.4979 10.0003 58.5179 10.0303 58.5179 10.0303C58.6379 10.0303 58.7079 9.94031 58.7279 9.76031C58.7679 9.58031 58.7979 9.49031 58.8179 9.49031C58.8779 9.53031 58.9479 9.57031 59.0279 9.61031C59.1079 9.61031 59.1479 9.54031 59.1479 9.40031C59.1479 9.34031 59.1079 9.26031 59.0279 9.16031C58.9679 9.10031 58.9379 8.98031 58.9379 8.80031C58.9379 8.76031 58.9379 8.71031 58.9379 8.65031C58.9579 8.59031 58.9779 8.52031 58.9979 8.44031C59.0379 8.36031 59.0579 8.29031 59.0579 8.23031C59.0779 8.15031 59.0979 8.08031 59.1179 8.02031L59.2079 7.90031C59.2079 7.86031 59.2079 7.81031 59.2079 7.75031C59.2079 7.69031 59.1979 7.62031 59.1779 7.54031L59.1479 7.15031C59.2079 7.15031 59.2879 7.11031 59.3879 7.03031C59.3879 7.01031 59.3779 7.00031 59.3579 7.00031C59.3179 6.96031 59.2779 6.94031 59.2379 6.94031C59.1779 6.84031 59.1479 6.77031 59.1479 6.73031C59.1479 6.69031 59.1779 6.61031 59.2379 6.49031L59.3279 6.22031C59.4479 6.12031 59.5079 6.05031 59.5079 6.01031C59.4679 5.97031 59.4079 5.89031 59.3279 5.77031C59.3279 5.69031 59.3579 5.62031 59.4179 5.56031C59.4779 5.46031 59.5079 5.41031 59.5079 5.41031C59.4879 5.35031 59.4879 5.25031 59.5079 5.11031C59.5079 5.07031 59.5679 4.98031 59.6879 4.84031L59.5079 4.66031L59.6279 4.45031C59.8879 4.19031 60.0179 4.01031 60.0179 3.91031C60.0179 3.85031 59.9779 3.77031 59.8979 3.67031C59.7979 3.57031 59.7479 3.43031 59.7479 3.25031V3.07031C59.8479 2.91031 59.9379 2.76031 60.0179 2.62031C60.1179 2.48031 60.1879 2.34031 60.2279 2.20031C60.2479 2.12031 60.2579 2.07031 60.2579 2.05031C60.2779 2.03031 60.2879 2.03031 60.2879 2.05031C60.2879 1.97031 60.2679 1.93031 60.2279 1.93031C60.2079 1.93031 60.1579 1.97031 60.0779 2.05031C59.9979 2.01031 59.9379 1.89031 59.8979 1.69031V1.45031C59.9179 1.37031 59.9379 1.30031 59.9579 1.24031C59.9979 1.18031 60.0279 1.12031 60.0479 1.06031L60.3179 1.00031C60.4779 1.00031 60.5979 1.03031 60.6779 1.09031L60.7979 1.18031C60.8579 1.16031 60.9479 1.11031 61.0679 1.03031L61.2779 0.970312L61.7579 1.12031V1.45031C61.7979 1.57031 61.8579 1.63031 61.9379 1.63031C62.0579 1.59031 62.1179 1.53031 62.1179 1.45031L62.0879 1.30031C62.0679 1.26031 62.0579 1.21031 62.0579 1.15031C62.0579 1.11031 62.0679 1.08031 62.0879 1.06031L62.3279 0.970312C62.3679 0.890312 62.4279 0.840312 62.5079 0.820312L62.9879 0.940311C63.0279 0.940311 63.0579 0.950311 63.0779 0.970312L63.1679 1.03031C63.2079 0.990312 63.2679 0.960312 63.3479 0.940311L64.1279 0.910311C64.1479 0.950311 64.1679 1.00031 64.1879 1.06031C64.2279 1.10031 64.2579 1.15031 64.2779 1.21031C64.2779 1.21031 64.2479 1.26031 64.1879 1.36031C64.1679 1.44031 64.1479 1.51031 64.1279 1.57031C64.1279 1.63031 64.1279 1.69031 64.1279 1.75031C64.1279 1.81031 64.1679 1.88031 64.2479 1.96031C64.2279 1.98031 64.2079 2.00031 64.1879 2.02031C64.1879 2.04031 64.1679 2.07031 64.1279 2.11031L64.0679 2.29031V2.62031L64.0979 2.65031L64.0679 2.83031C64.0879 2.87031 64.0979 2.95031 64.0979 3.07031C64.1179 3.19031 64.1279 3.29031 64.1279 3.37031C64.1279 3.39031 64.1279 3.43031 64.1279 3.49031C64.1479 3.55031 64.1679 3.62031 64.1879 3.70031L64.2479 3.97031L64.1579 4.30031C64.0979 4.44031 64.0579 4.56031 64.0379 4.66031C64.0779 4.72031 64.1179 4.78031 64.1579 4.84031C64.1979 4.90031 64.2479 4.97031 64.3079 5.05031C64.2479 4.97031 64.1979 4.90031 64.1579 4.84031C64.1179 4.78031 64.0779 4.73031 64.0379 4.69031C64.0379 4.69031 64.0379 4.68031 64.0379 4.66031C63.7379 4.20031 63.4679 3.81031 63.2279 3.49031C62.9879 3.15031 62.7779 2.87031 62.5979 2.65031L62.5679 2.71031C62.7279 2.97031 62.9479 3.30031 63.2279 3.70031C63.5279 4.10031 63.8679 4.56031 64.2479 5.08031C64.1679 5.04031 64.1179 4.99031 64.0979 4.93031C63.9579 4.95031 63.8979 5.01031 63.9179 5.11031L64.0379 5.29031C64.0179 5.31031 64.0179 5.37031 64.0379 5.47031C64.0779 5.49031 64.1079 5.52031 64.1279 5.56031C64.1679 5.60031 64.2079 5.64031 64.2479 5.68031L64.1279 5.83031C64.1079 5.87031 64.0879 5.90031 64.0679 5.92031C64.0679 5.94031 64.0679 5.96031 64.0679 5.98031C64.0679 6.06031 64.1379 6.10031 64.2779 6.10031C64.2179 6.40031 64.1779 6.53031 64.1579 6.49031C64.1579 6.49031 64.2379 6.57031 64.3979 6.73031C64.3979 6.77031 64.3879 6.82031 64.3679 6.88031C64.3679 6.94031 64.3579 7.01031 64.3379 7.09031C64.2979 7.13031 64.2479 7.19031 64.1879 7.27031C64.1279 7.33031 64.0579 7.41031 63.9779 7.51031L63.8579 7.75031C63.8579 7.91031 63.8879 8.01031 63.9479 8.05031C64.0079 8.07031 64.0679 8.09031 64.1279 8.11031C64.1679 8.05031 64.2079 8.02031 64.2479 8.02031C64.3279 8.02031 64.3779 8.08031 64.3979 8.20031C64.3979 8.24031 64.3279 8.33031 64.1879 8.47031C64.2279 8.57031 64.3079 8.70031 64.4279 8.86031L64.1879 9.07031C64.0679 9.15031 64.0079 9.23031 64.0079 9.31031L64.0679 9.43031H64.1579C64.2379 9.43031 64.3179 9.36031 64.3979 9.22031H64.5179L64.5479 9.31031C64.5479 9.31031 64.5379 9.34031 64.5179 9.40031C64.5179 9.46031 64.5079 9.55031 64.4879 9.67031C64.4679 9.81031 64.4479 9.93031 64.4279 10.0303C64.4279 10.1103 64.4279 10.1703 64.4279 10.2103C64.3279 10.3503 64.2779 10.4503 64.2779 10.5103C64.2379 10.4703 64.2079 10.4503 64.1879 10.4503C64.1479 10.4503 64.1279 10.5003 64.1279 10.6003C64.1279 10.7203 64.1779 11.0003 64.2779 11.4403C64.3179 11.5403 64.3479 11.6403 64.3679 11.7403C64.3879 11.8403 64.4079 11.9403 64.4279 12.0403C64.4479 12.3803 64.4579 12.5503 64.4579 12.5503C64.4179 12.6503 64.3979 12.7203 64.3979 12.7603V12.9703C64.3979 13.3703 64.3479 13.5703 64.2479 13.5703C64.2479 13.5503 64.2379 13.5403 64.2179 13.5403L64.3379 13.7203C64.3579 13.7403 64.3679 13.7703 64.3679 13.8103V13.9003C64.4279 13.9403 64.4779 14.0103 64.5179 14.1103L64.5779 14.5603V14.7403L64.5479 15.0403C64.5079 15.0803 64.4579 15.1103 64.3979 15.1303C64.3179 15.1503 64.2779 15.2003 64.2779 15.2803L64.3079 15.6103L64.4279 15.5803C64.5279 15.5803 64.5879 15.6203 64.6079 15.7003C64.6479 15.7403 64.6479 15.8203 64.6079 15.9403L64.5479 16.1503C64.5679 16.1703 64.5979 16.2203 64.6379 16.3003C64.6379 16.3603 64.6279 16.4003 64.6079 16.4203V16.5403C64.5879 16.6003 64.5779 16.6503 64.5779 16.6903L64.6079 17.5003C64.6679 17.5603 64.7079 17.6203 64.7279 17.6803L64.6379 17.9203C64.6579 18.0803 64.6679 18.2003 64.6679 18.2803C64.6679 18.3403 64.6779 18.3503 64.6979 18.3103C64.6579 18.4903 64.6279 18.5903 64.6079 18.6103L64.6679 18.7003C64.6879 18.7403 64.6979 18.7703 64.6979 18.7903C64.7179 18.8103 64.7279 18.8303 64.7279 18.8503C64.7279 19.0103 64.6979 19.1003 64.6379 19.1203C64.6379 19.1203 64.6279 19.1203 64.6079 19.1203H64.6379C64.6379 19.1003 64.6379 19.0903 64.6379 19.0903L64.3979 19.0003H64.1279C64.0879 19.0003 64.0379 19.0103 63.9779 19.0303H63.7379L63.6179 19.0003C63.5779 19.0003 63.5379 19.0103 63.4979 19.0303L63.3779 19.0603L62.8379 18.9403C62.8179 18.9403 62.7779 18.9703 62.7179 19.0303C62.6579 19.0903 62.5979 19.1203 62.5379 19.1203C62.4579 19.1203 62.3179 19.0503 62.1179 18.9103C62.0979 18.9503 61.9979 19.0303 61.8179 19.1503C61.6779 19.1503 61.6079 19.0703 61.6079 18.9103L61.7279 17.6203V17.4703C61.6679 17.4503 61.5979 17.4503 61.5179 17.4703C61.6179 17.3903 61.6579 17.2903 61.6379 17.1703L61.5779 16.9303V16.9003C61.5779 16.8403 61.6379 16.7803 61.7579 16.7203C61.7179 16.6603 61.6779 16.5903 61.6379 16.5103C61.6179 16.4503 61.5979 16.4003 61.5779 16.3603C61.5779 16.3003 61.5779 16.2503 61.5779 16.2103C61.5979 16.1703 61.6079 16.0803 61.6079 15.9403L61.5179 15.7603C61.6379 15.7403 61.7279 15.6603 61.7879 15.5203C61.7679 15.4803 61.7079 15.4403 61.6079 15.4003C61.6279 15.3003 61.6379 15.2203 61.6379 15.1603C61.6579 15.0803 61.6579 15.0203 61.6379 14.9803L61.5179 14.5903L61.5779 14.2903L61.6379 14.0503L61.4579 13.4503C61.4579 13.3903 61.5079 13.3103 61.6079 13.2103C61.5679 13.1903 61.5279 13.1603 61.4879 13.1203C61.4479 13.0803 61.4079 13.0403 61.3679 13.0003C61.4079 12.8803 61.4279 12.7003 61.4279 12.4603C61.4279 12.4003 61.4379 12.3603 61.4579 12.3403L61.3679 12.1003C61.3679 11.9003 61.3979 11.7703 61.4579 11.7103C61.5179 11.6503 61.5479 11.5703 61.5479 11.4703C61.5479 11.3103 61.4879 11.1603 61.3679 11.0203C61.4279 11.0603 61.4679 11.0703 61.4879 11.0503C61.5679 11.0503 61.6179 11.0203 61.6379 10.9603L61.3679 10.8703C61.3479 10.8503 61.3279 10.8303 61.3079 10.8103C61.2879 10.7703 61.2579 10.7403 61.2179 10.7203C61.2579 10.6603 61.3279 10.6003 61.4279 10.5403C61.4279 10.5803 61.4479 10.6203 61.4879 10.6603C61.4879 10.6403 61.5079 10.6103 61.5479 10.5703C61.2679 10.4103 61.1479 10.3303 61.1879 10.3303C61.1079 10.3303 61.0479 10.3803 61.0079 10.4803V10.8403C60.9279 10.8603 60.8879 10.9203 60.8879 11.0203V11.2003C60.8679 11.2203 60.8379 11.2803 60.7979 11.3803L60.8279 11.8003C60.8079 11.8203 60.7779 11.8603 60.7379 11.9203C60.6979 11.9603 60.6379 12.0203 60.5579 12.1003C60.6579 12.1803 60.7279 12.3403 60.7679 12.5803C60.7679 12.6603 60.7579 12.7103 60.7379 12.7303C60.6179 12.8503 60.5479 13.0003 60.5279 13.1803C60.5079 13.2803 60.4879 13.3803 60.4679 13.4803C60.4479 13.5603 60.4179 13.6503 60.3779 13.7503L60.5279 13.7803V14.2303L60.3779 14.4703C60.3979 14.4903 60.4179 14.5603 60.4379 14.6803C60.4579 14.7403 60.4679 14.8003 60.4679 14.8603C60.4879 14.9203 60.4879 14.9803 60.4679 15.0403L60.3779 15.2203H60.2879L60.1079 15.1303C59.9479 15.5503 59.8679 15.7203 59.8679 15.6403L60.1079 15.8803C60.1479 16.0003 60.1679 16.1303 60.1679 16.2703V16.5703C60.1479 16.5903 60.1079 16.6303 60.0479 16.6903C60.0079 16.7303 59.9679 16.7903 59.9279 16.8703C59.8879 16.9503 59.8679 17.0603 59.8679 17.2003L59.9279 17.2603C59.9479 17.2803 59.9579 17.3103 59.9579 17.3503L59.8679 18.0103C59.8679 18.0703 59.8279 18.1403 59.7479 18.2203V18.3103C59.7479 18.3903 59.7079 18.4403 59.6279 18.4603C59.7279 18.6403 59.7879 18.7903 59.8079 18.9103C59.8079 18.9503 59.7879 19.0103 59.7479 19.0903C59.6679 19.1103 59.5779 19.1303 59.4779 19.1503C59.3779 19.1903 59.2779 19.2303 59.1779 19.2703L58.8179 19.2403L58.4579 19.1803L58.0379 19.3003C57.9779 19.3003 57.9379 19.2903 57.9179 19.2703C57.9179 19.2503 57.8979 19.1703 57.8579 19.0303C57.7779 18.9503 57.7279 18.8803 57.7079 18.8203L57.5879 18.3403C57.6279 18.2803 57.6779 18.2503 57.7379 18.2503V18.0403C57.8979 18.0003 57.9879 17.9503 58.0079 17.8903C57.9879 17.8103 57.9479 17.7703 57.8879 17.7703C57.7679 17.7903 57.7079 17.8803 57.7079 18.0403H57.5279L57.5879 17.3803L57.5279 17.1403L57.4379 16.9003C57.4379 16.7603 57.5379 16.6903 57.7379 16.6903L57.8579 16.7503C57.9379 16.7503 57.9879 16.7103 58.0079 16.6303C57.8279 16.5503 57.6879 16.5103 57.5879 16.5103L57.4979 16.5403C57.4979 16.5203 57.5179 16.4703 57.5579 16.3903C57.4979 16.3303 57.4579 16.3003 57.4379 16.3003L57.2279 16.3303C57.2079 16.3103 57.1979 16.2303 57.1979 16.0903C57.1979 15.9703 57.2279 15.8703 57.2879 15.7903L57.3479 15.6403C57.3079 15.6003 57.2579 15.5603 57.1979 15.5203C57.1579 15.4803 57.0979 15.4303 57.0179 15.3703C56.9979 15.3503 56.9879 15.3203 56.9879 15.2803C56.9879 15.2203 56.9779 15.1503 56.9579 15.0703L57.0779 14.5303C57.0579 14.5103 57.0379 14.4903 57.0179 14.4703C56.9979 14.4503 56.9679 14.4203 56.9279 14.3803L56.8679 14.0503C56.8479 14.0303 56.8179 14.0103 56.7779 13.9903C56.7579 13.9503 56.7279 13.9003 56.6879 13.8403C56.7079 13.8203 56.7179 13.7903 56.7179 13.7503C56.7179 13.6703 56.6879 13.5903 56.6279 13.5103V13.3903L56.7179 13.3603C56.9179 13.3403 57.0179 13.2803 57.0179 13.1803C57.0179 13.1003 56.8879 13.0503 56.6279 13.0303C56.5679 12.8703 56.5379 12.7303 56.5379 12.6103L56.5979 12.5203V12.4603C56.5379 12.3203 56.4679 12.2303 56.3879 12.1903L56.3579 12.1303C56.3579 12.1103 56.3679 12.0903 56.3879 12.0703L56.2679 11.9803C56.4279 11.7203 56.5079 11.5903 56.5079 11.5903C56.5079 11.4903 56.4479 11.4003 56.3279 11.3203C56.3279 11.3003 56.3779 11.2403 56.4779 11.1403L56.0879 11.0803C56.0279 10.9803 55.9879 10.9303 55.9679 10.9303C55.8679 10.9703 55.8079 11.0103 55.7879 11.0503V11.2003L55.6979 11.2903V11.4103C55.7179 11.4503 55.7379 11.5003 55.7579 11.5603C55.7779 11.6203 55.7979 11.6903 55.8179 11.7703C55.8179 11.8703 55.7879 11.9503 55.7279 12.0103C55.6479 12.0703 55.6079 12.1103 55.6079 12.1303L55.8779 12.5803C55.8979 12.6003 55.9079 12.6403 55.9079 12.7003C55.9079 12.7403 55.9179 12.7803 55.9379 12.8203C55.9179 12.8003 55.8979 12.8303 55.8779 12.9103C55.7979 12.9303 55.7479 12.9803 55.7279 13.0603L55.6979 13.2103C55.7779 13.2903 55.8479 13.3303 55.9079 13.3303L55.9679 15.1003L55.9079 15.1903C55.9279 15.2503 55.9379 15.3503 55.9379 15.4903C55.9379 15.5503 55.9079 15.6403 55.8479 15.7603L55.7879 15.9403C55.7879 15.9603 55.7879 15.9803 55.7879 16.0003C55.8079 16.0203 55.8279 16.0503 55.8479 16.0903C55.8879 16.1503 55.8879 16.2603 55.8479 16.4203C55.9279 16.5203 55.9479 16.6803 55.9079 16.9003C55.9279 17.1203 55.9379 17.3003 55.9379 17.4403C55.9579 17.5803 55.9579 17.6903 55.9379 17.7703C55.9779 17.8303 56.0079 17.8903 56.0279 17.9503C56.0479 17.9903 56.0679 18.0303 56.0879 18.0703C56.0479 18.1903 56.0079 18.3203 55.9679 18.4603C55.9479 18.5803 55.9179 18.7203 55.8779 18.8803L56.0279 19.0903V19.2103C55.9879 19.2503 55.9279 19.2903 55.8479 19.3303C55.7879 19.3703 55.7179 19.4103 55.6379 19.4503C55.5179 19.4503 55.3879 19.4103 55.2479 19.3303L54.9479 19.1803C54.8879 19.2403 54.8279 19.2903 54.7679 19.3303C54.6879 19.3503 54.6079 19.3603 54.5279 19.3603C54.4679 19.3803 54.4179 19.3903 54.3779 19.3903L53.9579 19.3303C53.9379 19.3303 53.8779 19.3603 53.7779 19.4203L53.5979 19.4803ZM61.3079 1.54031C61.3079 1.46031 61.2879 1.40031 61.2479 1.36031L61.1879 1.54031H61.3079ZM55.0379 2.65031L55.1579 2.59031L55.0979 2.50031C55.0779 2.52031 55.0679 2.54031 55.0679 2.56031C55.0679 2.58031 55.0579 2.61031 55.0379 2.65031ZM61.8479 2.89031L61.9679 2.80031C61.9679 2.78031 61.9279 2.78031 61.8479 2.80031C61.8279 2.82031 61.8279 2.85031 61.8479 2.89031ZM62.2379 3.10031C62.2979 3.14031 62.3479 3.10031 62.3879 2.98031C62.3679 2.96031 62.3379 2.95031 62.2979 2.95031C62.2179 2.95031 62.1979 3.00031 62.2379 3.10031ZM53.8979 3.64031C53.9579 3.66031 54.0079 3.65031 54.0479 3.61031C54.0879 3.57031 54.0679 3.52031 53.9879 3.46031C53.9279 3.48031 53.8979 3.54031 53.8979 3.64031ZM56.0579 4.27031C56.1379 4.23031 56.1879 4.20031 56.2079 4.18031C56.1279 4.02031 56.0979 3.90031 56.1179 3.82031C56.1579 3.78031 56.1979 3.74031 56.2379 3.70031C56.2779 3.64031 56.3179 3.58031 56.3579 3.52031C56.1979 3.48031 56.0879 3.47031 56.0279 3.49031C55.9079 3.49031 55.8379 3.50031 55.8179 3.52031C55.7179 3.58031 55.6679 3.65031 55.6679 3.73031C55.6679 4.09031 55.7979 4.27031 56.0579 4.27031ZM55.4279 5.47031C55.4479 5.43031 55.4379 5.39031 55.3979 5.35031C55.3779 5.33031 55.3279 5.34031 55.2479 5.38031C55.2879 5.44031 55.3479 5.47031 55.4279 5.47031ZM54.1079 6.31031C54.1079 6.27031 54.0879 6.23031 54.0479 6.19031C54.0279 6.15031 53.9879 6.16031 53.9279 6.22031C53.9279 6.28031 53.9879 6.31031 54.1079 6.31031ZM62.5379 6.70031C62.5379 6.68031 62.5079 6.64031 62.4479 6.58031L62.3879 6.64031C62.4079 6.66031 62.4279 6.67031 62.4479 6.67031C62.4879 6.67031 62.5179 6.68031 62.5379 6.70031ZM52.9679 6.85031C53.0279 6.89031 53.0779 6.86031 53.1179 6.76031C53.0979 6.74031 53.0679 6.73031 53.0279 6.73031C52.9679 6.73031 52.9479 6.77031 52.9679 6.85031ZM63.3179 7.00031C63.2979 6.96031 63.2679 6.96031 63.2279 7.00031L63.3179 7.12031V7.00031ZM62.5979 7.18031C62.5979 7.12031 62.5779 7.07031 62.5379 7.03031C62.4979 7.03031 62.4579 7.05031 62.4179 7.09031C62.4179 7.15031 62.4779 7.18031 62.5979 7.18031ZM56.2679 8.53031C56.3079 8.49031 56.3279 8.44031 56.3279 8.38031C56.2279 8.40031 56.1579 8.45031 56.1179 8.53031H56.2679ZM56.4179 8.83031L56.3579 8.74031L56.1479 8.83031H56.4179ZM57.5579 9.01031C57.5579 8.97031 57.5179 8.95031 57.4379 8.95031C57.4979 9.01031 57.5379 9.03031 57.5579 9.01031ZM55.0379 11.0503C55.0579 11.0503 55.0779 11.0403 55.0979 11.0203L54.9779 10.9303C54.9579 10.9303 54.9379 10.9403 54.9179 10.9603L55.0379 11.0503ZM57.7379 11.5303V11.3203C57.6379 11.4203 57.5679 11.4703 57.5279 11.4703C57.5479 11.4703 57.5579 11.4903 57.5579 11.5303H57.7379ZM55.1279 11.6503L55.3379 11.6203C55.3179 11.5203 55.2579 11.4603 55.1579 11.4403L55.1279 11.6503ZM62.6579 12.5803C62.7579 12.4803 62.8079 12.3803 62.8079 12.2803V12.1903C62.7879 12.1503 62.7479 12.1103 62.6879 12.0703C62.6479 12.0303 62.5979 11.9703 62.5379 11.8903L62.4779 12.2203C62.4779 12.3003 62.5379 12.4203 62.6579 12.5803ZM59.3879 12.8203C59.6479 12.7803 59.7879 12.7703 59.8079 12.7903L59.7779 12.5503C59.6779 12.4503 59.5879 12.4103 59.5079 12.4303C59.4679 12.4703 59.4279 12.6003 59.3879 12.8203ZM64.4879 12.5203C64.4879 12.5203 64.4779 12.5303 64.4579 12.5503C64.4779 12.5503 64.4879 12.5503 64.4879 12.5503C64.4879 12.5303 64.4879 12.5203 64.4879 12.5203ZM58.7879 13.6303L58.7279 13.5403H58.6979L58.7279 13.6303H58.7879ZM55.0379 14.3803C55.0979 14.4003 55.1579 14.3703 55.2179 14.2903C55.1579 14.2303 55.1079 14.2203 55.0679 14.2603C55.0279 14.3003 55.0179 14.3403 55.0379 14.3803ZM54.0779 14.9803C54.0979 14.9603 54.1079 14.9303 54.1079 14.8903C54.1079 14.8303 54.0679 14.8003 53.9879 14.8003C53.9679 14.8603 53.9979 14.9203 54.0779 14.9803ZM63.6179 16.5703C63.6979 16.5703 63.7579 16.5503 63.7979 16.5103C63.6979 16.3503 63.6779 16.2203 63.7379 16.1203C63.7779 16.0803 63.8179 16.0403 63.8579 16.0003C63.8979 15.9603 63.9379 15.9103 63.9779 15.8503C63.8979 15.8303 63.8279 15.8203 63.7679 15.8203C63.7079 15.8003 63.6579 15.7903 63.6179 15.7903C63.5579 15.7903 63.4879 15.8103 63.4079 15.8503C63.3079 15.9103 63.2579 16.0003 63.2579 16.1203C63.2979 16.4203 63.4179 16.5703 63.6179 16.5703ZM55.1279 16.3603C55.1479 16.3203 55.1279 16.2803 55.0679 16.2403C55.0479 16.2003 55.0079 16.2103 54.9479 16.2703C54.9879 16.3303 55.0479 16.3603 55.1279 16.3603ZM54.2879 18.7603C54.3279 18.7203 54.4279 18.6903 54.5879 18.6703C54.7279 18.6703 54.7879 18.6003 54.7679 18.4603L54.7379 18.3703L54.6179 18.3403L54.3479 18.4303C54.3279 18.4303 54.3179 18.4203 54.3179 18.4003H54.2579C54.1779 18.4003 54.1379 18.4303 54.1379 18.4903C54.1379 18.6103 54.1879 18.7003 54.2879 18.7603Z" fill="#F65C5C"/>
<path d="M47.1925 19.3605L46.7125 19.2705L46.4125 19.3305C46.3325 19.3305 46.2325 19.3305 46.1125 19.3305C46.0125 19.3305 45.9125 19.3205 45.8125 19.3005L45.5425 19.1805H45.2425C45.1225 19.0405 44.9325 18.9405 44.6725 18.8805C44.4125 18.8605 44.2325 18.7605 44.1325 18.5805L44.0425 18.4905C43.9825 18.5105 43.8825 18.5005 43.7425 18.4605C43.6625 18.3605 43.5625 18.2505 43.4425 18.1305C43.3225 18.0105 43.1825 17.8705 43.0225 17.7105C43.0225 17.6705 43.0125 17.6205 42.9925 17.5605C42.9925 17.5005 42.9825 17.4305 42.9625 17.3505C42.9025 17.2905 42.8325 17.2205 42.7525 17.1405C42.6925 17.0405 42.6225 16.9205 42.5425 16.7805C42.5825 16.6605 42.5825 16.4805 42.5425 16.2405L42.4525 16.0905V15.7905C42.4525 15.6905 42.4525 15.5705 42.4525 15.4305C42.4525 15.2905 42.4425 15.1505 42.4225 15.0105C42.3625 14.9505 42.3025 14.8605 42.2425 14.7405L42.1825 14.1705L42.2425 13.8105L42.2725 13.4505C42.2725 13.4305 42.2525 13.3805 42.2125 13.3005V12.9705C42.1925 12.9105 42.1625 12.8205 42.1225 12.7005L42.2125 11.8305L42.0325 10.5705L42.1225 10.3605C42.1625 10.2205 42.1725 10.1205 42.1525 10.0605L42.0625 9.79047C42.0625 9.67047 42.0625 9.52047 42.0625 9.34047C42.0625 9.14047 42.0525 8.91047 42.0325 8.65047C41.9525 8.55047 41.9125 8.38047 41.9125 8.14047C41.8925 8.00047 41.8925 7.90047 41.9125 7.84047C41.9725 7.70047 42.0125 7.62047 42.0325 7.60047L41.8825 7.45047C41.8625 7.25047 41.8525 7.08047 41.8525 6.94047C41.8525 6.78047 41.8525 6.63047 41.8525 6.49047C41.8525 6.35047 41.8525 6.23047 41.8525 6.13047C41.8525 6.01047 41.8625 5.91047 41.8825 5.83047C41.9625 5.65047 42.0225 5.55047 42.0625 5.53047C42.1625 5.51047 42.2625 5.40047 42.3625 5.20047L42.3925 5.17047C42.3925 5.13047 42.3125 5.06047 42.1525 4.96047C41.9925 4.86047 41.9125 4.78047 41.9125 4.72047C41.9325 4.68047 41.9525 4.64047 41.9725 4.60047C41.9925 4.56047 42.0125 4.50047 42.0325 4.42047C41.9925 4.26047 41.9725 4.09047 41.9725 3.91047C42.0525 3.81047 42.1425 3.67047 42.2425 3.49047C42.3625 3.31047 42.4925 3.11047 42.6325 2.89047V2.71047C42.6525 2.65047 42.6825 2.58047 42.7225 2.50047C42.7625 2.42047 42.8025 2.34047 42.8425 2.26047L43.0225 2.14047C43.1225 2.08047 43.2725 1.96047 43.4725 1.78047L43.8325 1.45047C43.8325 1.45047 43.8525 1.45047 43.8925 1.45047C43.9325 1.45047 43.9925 1.44047 44.0725 1.42047C44.1125 1.38047 44.1325 1.33047 44.1325 1.27047C44.1925 1.29047 44.2425 1.31047 44.2825 1.33047C44.3425 1.35047 44.3925 1.35047 44.4325 1.33047L44.5525 1.30047C44.8925 1.06047 45.0925 0.940468 45.1525 0.940468L45.3025 1.00047C45.3025 1.00047 45.3025 1.01047 45.3025 1.03047C45.3225 1.03047 45.3425 1.03047 45.3625 1.03047C45.6425 1.03047 45.7725 0.960468 45.7525 0.820469C45.8525 0.760468 45.9325 0.730469 45.9925 0.730469C46.0725 0.770468 46.1225 0.830467 46.1425 0.910467C46.1425 0.930467 46.1925 0.940468 46.2925 0.940468C46.3325 0.900468 46.3825 0.870467 46.4425 0.850468C46.5225 0.810467 46.6025 0.780467 46.6825 0.760468C46.7625 0.780467 46.8425 0.810467 46.9225 0.850468C47.0025 0.870467 47.0925 0.890467 47.1925 0.910467L47.4325 0.880468H47.5225C47.5825 0.880468 47.6325 0.890467 47.6725 0.910467C47.7325 0.910467 47.7925 0.920468 47.8525 0.940468C47.8725 1.04047 47.9425 1.13047 48.0625 1.21047H48.1525C48.2725 1.21047 48.4225 1.24047 48.6025 1.30047C48.6225 1.32047 48.6425 1.36047 48.6625 1.42047C48.6825 1.46047 48.7025 1.51047 48.7225 1.57047V1.75047L48.7825 1.78047C48.8625 1.70047 48.9525 1.66047 49.0525 1.66047H49.0825C49.2025 1.66047 49.3525 1.78047 49.5325 2.02047C49.5525 2.04047 49.5725 2.09047 49.5925 2.17047C49.6125 2.23047 49.6325 2.31047 49.6525 2.41047L49.8025 2.50047C49.8225 2.50047 49.8425 2.55047 49.8625 2.65047C49.9025 2.67047 49.9825 2.74047 50.1025 2.86047L50.3125 2.95047C50.3125 3.05047 50.2725 3.15047 50.1925 3.25047C50.1125 3.39047 50.0725 3.50047 50.0725 3.58047V3.67047C50.1125 3.83047 50.2825 4.02047 50.5825 4.24047L50.7625 4.66047C50.7625 4.66047 50.7525 4.70047 50.7325 4.78047C50.7125 4.84047 50.6825 4.94047 50.6425 5.08047C50.6425 5.14047 50.6525 5.18047 50.6725 5.20047C50.6125 5.52047 50.5825 5.73047 50.5825 5.83047L50.7325 6.16047C50.7325 6.22047 50.6625 6.29047 50.5225 6.37047C50.3825 6.45047 50.3125 6.51047 50.3125 6.55047V6.58047C50.4125 6.62047 50.5025 6.68047 50.5825 6.76047C50.6825 6.82047 50.7725 6.89047 50.8525 6.97047C50.8525 6.99047 50.8325 7.04047 50.7925 7.12047L50.7325 7.24047C50.7525 7.30047 50.7625 7.43047 50.7625 7.63047C50.7425 7.73047 50.7325 7.77047 50.7325 7.75047C50.7325 7.73047 50.7325 7.74047 50.7325 7.78047L50.7625 8.32047V8.35047L50.7325 8.47047C50.8125 8.59047 50.8825 8.77047 50.9425 9.01047V9.07047C50.9425 9.13047 50.9125 9.21047 50.8525 9.31047L50.7625 9.49047V9.58047C50.7625 9.74047 50.7925 10.0005 50.8525 10.3605L50.7325 10.3905C50.6725 10.3905 50.6425 10.4105 50.6425 10.4505C50.6425 10.4505 50.6925 10.5005 50.7925 10.6005C50.7925 10.8005 50.8425 10.9205 50.9425 10.9605C51.0225 11.0205 51.0625 11.1105 51.0625 11.2305C51.0225 11.3305 51.0225 11.4905 51.0625 11.7105C51.0425 11.8305 50.9725 11.8905 50.8525 11.8905C50.8125 11.8905 50.7825 11.8805 50.7625 11.8605C50.7425 11.8405 50.7125 11.8305 50.6725 11.8305C50.5925 11.8705 50.5225 11.9205 50.4625 11.9805C50.5625 12.0405 50.6325 12.0705 50.6725 12.0705C50.7325 12.0705 50.8025 12.0405 50.8825 11.9805C50.9425 12.0005 50.9725 12.0805 50.9725 12.2205L51.0025 12.5205C51.0625 12.5605 51.1025 12.6305 51.1225 12.7305C51.1225 12.8305 51.0825 12.9205 51.0025 13.0005C51.0025 13.0005 51.0225 13.0205 51.0625 13.0605L51.1525 13.1805L51.0925 13.3305C51.0725 13.3905 51.0625 13.4405 51.0625 13.4805C51.0625 13.5205 51.0625 13.5505 51.0625 13.5705L50.9425 13.6605C51.1025 13.9405 51.1825 14.1305 51.1825 14.2305L51.1525 14.3205C51.1525 14.3405 51.1425 14.3605 51.1225 14.3805C51.1025 14.3805 51.0925 14.3905 51.0925 14.4105C51.1125 14.4505 51.1225 14.5105 51.1225 14.5905C51.1225 14.6505 51.1225 14.7205 51.1225 14.8005C51.0825 14.8205 51.0225 14.8905 50.9425 15.0105L51.0025 15.6405V15.7605C51.0025 15.9205 50.9725 16.0305 50.9125 16.0905L50.8225 16.1805L50.7925 16.4805C50.6325 16.7005 50.5525 16.8005 50.5525 16.7805C50.5525 16.8005 50.5825 16.8305 50.6425 16.8705C50.6225 16.8905 50.6025 16.9105 50.5825 16.9305C50.5625 16.9305 50.5425 16.9505 50.5225 16.9905L50.4925 17.3205C50.4725 17.3405 50.3425 17.4605 50.1025 17.6805C49.9825 17.7605 49.9125 17.8805 49.8925 18.0405C49.7325 18.1405 49.6025 18.2105 49.5025 18.2505C49.5225 18.2305 49.5025 18.2205 49.4425 18.2205L49.0525 18.7905C49.0125 18.8105 48.9625 18.8205 48.9025 18.8205C48.8625 18.8205 48.8025 18.8305 48.7225 18.8505L48.4825 19.0005C48.4425 19.0005 48.3925 19.0005 48.3325 19.0005C48.2925 19.0205 48.2325 19.0405 48.1525 19.0605L47.6125 19.3305C47.5725 19.3305 47.5425 19.3205 47.5225 19.3005C47.5025 19.2805 47.4625 19.2705 47.4025 19.2705L47.1925 19.3605ZM47.7925 2.53047L47.9125 2.44047C47.9125 2.42047 47.8725 2.42047 47.7925 2.44047V2.53047ZM48.1825 2.71047C48.2425 2.73047 48.3025 2.70047 48.3625 2.62047C48.3425 2.60047 48.3025 2.59047 48.2425 2.59047C48.2025 2.59047 48.1825 2.63047 48.1825 2.71047ZM46.5925 3.40047L46.7425 3.37047L46.6825 3.25047C46.5825 3.29047 46.5525 3.34047 46.5925 3.40047ZM46.4425 16.6605C46.4825 16.6605 46.6025 16.6005 46.8025 16.4805C46.9025 16.5805 46.9725 16.6305 47.0125 16.6305C47.1525 16.6105 47.2225 16.5705 47.2225 16.5105V16.3005C47.2425 16.2405 47.3425 16.1605 47.5225 16.0605C47.5625 16.0805 47.5925 16.1705 47.6125 16.3305H47.7625L47.8225 16.2705C47.9425 15.9905 48.0025 15.8505 48.0025 15.8505L47.9125 15.6105C47.8525 15.4505 47.8225 15.3705 47.8225 15.3705L47.8525 15.2205C47.8525 15.2005 47.8525 15.1905 47.8525 15.1905C47.8725 15.1705 47.8825 15.1505 47.8825 15.1305C47.8625 15.0705 47.8525 14.9305 47.8525 14.7105C47.8725 14.4705 47.8925 14.3605 47.9125 14.3805C47.8725 14.2205 47.8425 14.0805 47.8225 13.9605C47.8025 13.8205 47.7925 13.7105 47.7925 13.6305C47.7925 13.6105 47.8725 13.5205 48.0325 13.3605C48.1725 13.2405 48.2425 13.1705 48.2425 13.1505L48.0325 12.9105L48.0925 12.3405L48.2125 12.1005C48.1925 12.0805 48.1125 12.0405 47.9725 11.9805C47.8525 11.9205 47.7925 11.8705 47.7925 11.8305V11.8005C47.6925 11.5405 47.6425 11.3405 47.6425 11.2005L47.7325 10.7805L47.7925 10.4205L47.7025 10.2405C47.7225 10.1005 47.7225 9.91047 47.7025 9.67047C47.6225 9.59047 47.5725 9.52047 47.5525 9.46047C47.5525 9.46047 47.5725 9.39047 47.6125 9.25047L47.6725 9.07047C47.6525 9.03047 47.6325 8.99047 47.6125 8.95047C47.5925 8.91047 47.5725 8.86047 47.5525 8.80047L47.6425 8.17047L47.7925 8.11047C47.8525 8.07047 47.8825 8.02047 47.8825 7.96047C47.8025 7.94047 47.7025 7.88047 47.5825 7.78047C47.4825 7.64047 47.4325 7.53047 47.4325 7.45047L47.5525 7.21047C47.6125 7.05047 47.6425 6.97047 47.6425 6.97047C47.6025 6.95047 47.5425 6.88047 47.4625 6.76047L47.6125 6.34047C47.5725 6.30047 47.5325 6.25047 47.4925 6.19047C47.4525 6.11047 47.4125 6.03047 47.3725 5.95047C47.3725 5.91047 47.4125 5.85047 47.4925 5.77047C47.4725 5.71047 47.4625 5.61047 47.4625 5.47047C47.4625 5.47047 47.4825 5.43047 47.5225 5.35047C47.5625 5.31047 47.5825 5.27047 47.5825 5.23047L47.4325 5.02047L47.4025 4.51047C47.4025 4.47047 47.3725 4.42047 47.3125 4.36047C47.2725 4.34047 47.2225 4.31047 47.1625 4.27047C47.1225 4.23047 47.0625 4.19047 46.9825 4.15047L46.8025 3.82047C46.8225 3.84047 46.6025 3.86047 46.1425 3.88047H46.1125C46.0525 3.88047 45.9125 3.80047 45.6925 3.64047C45.4125 3.48047 45.2225 3.39047 45.1225 3.37047C45.0625 3.37047 45.0025 3.43047 44.9425 3.55047C44.9025 3.67047 44.8925 3.74047 44.9125 3.76047C44.9125 3.82047 44.9825 3.92047 45.1225 4.06047L45.3325 4.27047L45.2425 4.66047L45.1225 4.90047C45.1225 4.92047 45.1225 4.95047 45.1225 4.99047C45.1225 5.03047 45.1125 5.07047 45.0925 5.11047C45.0725 5.13047 45.0525 5.15047 45.0325 5.17047C45.0125 5.19047 44.9925 5.21047 44.9725 5.23047C44.9725 5.25047 44.9625 5.29047 44.9425 5.35047C44.9425 5.39047 44.9325 5.45047 44.9125 5.53047L44.8525 5.74047C44.8525 5.78047 44.8825 5.83047 44.9425 5.89047C45.0025 5.95047 45.0325 6.00047 45.0325 6.04047L45.0025 6.40047C45.0225 6.44047 45.0425 6.50047 45.0625 6.58047C45.1025 6.66047 45.1325 6.75047 45.1525 6.85047V6.94047C45.1525 6.96047 45.1525 7.00047 45.1525 7.06047C45.1525 7.12047 45.1425 7.19047 45.1225 7.27047C45.1025 7.33047 45.1125 7.38047 45.1525 7.42047L45.2125 7.45047C45.1325 7.49047 45.1125 7.56047 45.1525 7.66047C45.2125 7.88047 45.2325 8.01047 45.2125 8.05047L45.1225 8.29047C45.1425 8.37047 45.1525 8.46047 45.1525 8.56047C45.1525 8.64047 45.1625 8.74047 45.1825 8.86047C45.1225 8.92047 45.0625 9.01047 45.0025 9.13047L45.3025 9.31047C45.3425 9.37047 45.3725 9.47047 45.3925 9.61047C45.3925 9.75047 45.3525 9.90047 45.2725 10.0605C45.2125 10.0805 45.1525 10.1405 45.0925 10.2405C45.1725 10.2805 45.2425 10.3705 45.3025 10.5105L45.1825 10.9605C45.2025 11.0005 45.2225 11.0505 45.2425 11.1105C45.2625 11.1705 45.2825 11.2405 45.3025 11.3205L45.2725 11.4105C45.2325 11.4505 45.2125 11.4805 45.2125 11.5005C45.1925 11.5805 45.1725 11.6805 45.1525 11.8005C45.1525 11.9005 45.1525 12.0005 45.1525 12.1005C45.1925 12.1205 45.2225 12.1805 45.2425 12.2805C45.2425 12.3405 45.2425 12.4205 45.2425 12.5205C45.2625 12.6005 45.2825 12.6905 45.3025 12.7905L45.4825 12.9705C45.5225 13.0105 45.5425 13.0905 45.5425 13.2105L45.2725 13.3305C45.1725 13.3705 45.1225 13.4605 45.1225 13.6005C45.1225 13.6005 45.2525 13.7305 45.5125 13.9905C45.5325 14.0105 45.5525 14.0205 45.5725 14.0205H45.5425L45.5125 13.9905C45.4925 13.9905 45.4525 13.9905 45.3925 13.9905C45.4725 13.9905 45.5125 14.0505 45.5125 14.1705C45.4925 14.2505 45.4625 14.3305 45.4225 14.4105C45.4025 14.4905 45.3725 14.5805 45.3325 14.6805C45.3325 14.6805 45.3825 14.7305 45.4825 14.8305C45.5625 14.9105 45.6025 14.9705 45.6025 15.0105C45.6025 15.0105 45.5725 15.0605 45.5125 15.1605C45.4525 15.2405 45.4225 15.3005 45.4225 15.3405C45.4225 15.3405 45.4725 15.4205 45.5725 15.5805C45.6725 15.7405 45.7225 15.8305 45.7225 15.8505C45.7225 15.9305 45.6625 16.0005 45.5425 16.0605V16.1805C45.5425 16.3805 45.6125 16.4705 45.7525 16.4505L45.8725 16.4205H45.9325C46.0725 16.4205 46.1825 16.4605 46.2625 16.5405C46.3425 16.6205 46.4025 16.6605 46.4425 16.6605ZM42.7825 3.67047C42.8425 3.69047 42.9025 3.65047 42.9625 3.55047C42.9425 3.53047 42.9125 3.52047 42.8725 3.52047C42.8125 3.52047 42.7825 3.57047 42.7825 3.67047ZM44.0125 3.97047C44.0725 3.99047 44.1325 3.95047 44.1925 3.85047C44.1325 3.81047 44.0825 3.81047 44.0425 3.85047C44.0225 3.87047 44.0125 3.91047 44.0125 3.97047ZM43.4425 4.90047C43.4625 4.90047 43.5025 4.90047 43.5625 4.90047C43.6225 4.90047 43.7025 4.89047 43.8025 4.87047C43.9025 4.87047 43.9525 4.83047 43.9525 4.75047L43.8925 4.54047H43.7725L43.4425 4.90047ZM48.9325 5.41047C48.9525 5.39047 48.9625 5.35047 48.9625 5.29047C48.9225 5.25047 48.8725 5.23047 48.8125 5.23047L48.7825 5.38047L48.9325 5.41047ZM48.8125 7.39047L49.2025 7.12047C49.1425 7.08047 49.1125 7.04047 49.1125 7.00047C49.1125 6.86047 49.0625 6.75047 48.9625 6.67047L48.8425 6.70047C48.8225 6.72047 48.8225 6.78047 48.8425 6.88047C48.8225 6.94047 48.7925 7.01047 48.7525 7.09047C48.7125 7.15047 48.6725 7.23047 48.6325 7.33047C48.7125 7.37047 48.7725 7.39047 48.8125 7.39047ZM42.6625 9.34047C42.6825 9.26047 42.6725 9.16047 42.6325 9.04047L42.4225 9.13047L42.6625 9.34047ZM42.6925 10.1505C42.7925 10.1105 42.8925 10.0405 42.9925 9.94047C42.9125 9.86047 42.8425 9.82047 42.7825 9.82047V9.88047C42.7825 9.92047 42.7525 9.99047 42.6925 10.0905V10.1505ZM49.9525 10.9305L50.2525 10.8405V10.7205L50.1025 10.6905L49.9525 10.9305ZM50.5225 11.0805C50.6025 11.1005 50.6825 11.0705 50.7625 10.9905L50.5825 10.9605C50.5425 11.0005 50.5225 11.0405 50.5225 11.0805ZM50.0425 11.2005V11.1405H49.9525V11.2005H50.0425ZM43.1725 12.5505L43.2025 12.4605L42.9925 12.4305L43.1725 12.5505ZM42.8425 13.3305L42.9925 13.2705L42.8425 13.2405V13.3305ZM48.6325 14.2005C48.6725 14.2005 48.6425 14.1705 48.5425 14.1105C48.5425 14.1105 48.5225 14.1305 48.4825 14.1705C48.5025 14.1905 48.5525 14.2005 48.6325 14.2005ZM43.9225 14.8005C44.0225 14.8005 44.1425 14.7505 44.2825 14.6505V14.5305C44.1825 14.4105 44.1025 14.3305 44.0425 14.2905L43.7725 14.6805C43.7725 14.7205 43.7925 14.7605 43.8325 14.8005H43.9225ZM49.4425 14.6205L49.4125 14.4705C49.3725 14.4705 49.3425 14.4805 49.3225 14.5005C49.3225 14.5005 49.3325 14.5205 49.3525 14.5605C49.3925 14.6005 49.4225 14.6205 49.4425 14.6205ZM48.6925 14.6805C48.6925 14.6405 48.6725 14.6005 48.6325 14.5605C48.6125 14.5205 48.5725 14.5305 48.5125 14.5905C48.5525 14.6505 48.6125 14.6805 48.6925 14.6805ZM43.0225 14.8605C43.1425 14.9405 43.2325 14.9005 43.2925 14.7405C43.1725 14.7805 43.0825 14.8205 43.0225 14.8605ZM43.0525 16.0605C42.9925 15.9605 42.9625 15.8905 42.9625 15.8505L42.8425 15.8805L42.8725 16.0005C42.9125 16.0405 42.9725 16.0605 43.0525 16.0605ZM43.1725 16.0305L43.3225 16.0005C43.3425 15.9805 43.3325 15.9305 43.2925 15.8505L43.1725 15.9105V16.0305ZM49.3225 16.6305C49.4225 16.4705 49.4625 16.3705 49.4425 16.3305H49.2925L49.1725 16.5405L49.3225 16.6305ZM45.7225 17.2605L45.6925 17.1705H45.6325L45.6925 17.2605H45.7225ZM45.5425 18.6405C45.6025 18.5405 45.6525 18.4905 45.6925 18.4905C45.7925 18.4905 45.8825 18.5205 45.9625 18.5805L46.0225 18.4905L45.8725 18.1905C45.8525 18.1305 45.8125 18.1005 45.7525 18.1005C45.7125 18.1005 45.6625 18.1205 45.6025 18.1605C45.5425 18.2005 45.4625 18.2905 45.3625 18.4305C45.3425 18.4505 45.3325 18.4905 45.3325 18.5505C45.3325 18.6105 45.3525 18.6405 45.3925 18.6405H45.5425Z" fill="#F65C5C"/>
<path d="M35.6228 19.3902C35.6028 19.3902 35.5828 19.3802 35.5628 19.3602C35.5628 19.1802 35.5328 19.0202 35.4728 18.8802C35.4328 18.8802 35.3528 18.9402 35.2328 19.0602C35.0928 19.1802 35.0028 19.2402 34.9628 19.2402L34.1828 19.0302C34.1628 19.0502 34.1128 19.0602 34.0328 19.0602L33.4328 18.7902C33.4128 18.7902 33.3728 18.7902 33.3128 18.7902C33.2728 18.7702 33.2228 18.7502 33.1628 18.7302L32.8028 18.5202H32.7728L32.6828 18.5502C32.6228 18.4702 32.5128 18.3802 32.3528 18.2802L32.2328 17.8602C32.1328 17.8002 32.0628 17.7402 32.0228 17.6802L31.9328 17.3802C31.8728 17.3402 31.8128 17.3002 31.7528 17.2602C31.6928 17.2002 31.6228 17.1302 31.5428 17.0502C31.5228 17.0102 31.5028 16.9602 31.4828 16.9002C31.4628 16.8402 31.4328 16.7702 31.3928 16.6902V16.5102C31.3728 16.4702 31.3528 16.4402 31.3328 16.4202C31.3128 16.3802 31.2828 16.3402 31.2428 16.3002C31.1628 16.1602 31.1328 15.9902 31.1528 15.7902L31.3328 15.2502C31.3328 15.2502 31.3128 15.2102 31.2728 15.1302L31.1828 14.9802C31.1628 14.9202 31.1528 14.8402 31.1528 14.7402C31.1728 14.3802 31.2028 14.2502 31.2428 14.3502C31.2428 14.3502 31.2228 14.3102 31.1828 14.2302C31.1228 14.1702 31.0928 14.1202 31.0928 14.0802C31.1328 13.8602 31.1728 13.7102 31.2128 13.6302C31.2528 13.5902 31.3128 13.5102 31.3928 13.3902L31.3328 13.1802C31.3128 13.0802 31.3028 13.0302 31.3028 13.0302L31.4528 12.7902L31.3628 12.6702C31.3828 12.6502 31.3928 12.5902 31.3928 12.4902L31.3328 12.0402L31.4828 11.7702C31.5028 11.7102 31.4928 11.6302 31.4528 11.5302C31.4528 11.5102 31.4628 11.5002 31.4828 11.5002C31.5028 11.5002 31.5128 11.4802 31.5128 11.4402C31.5128 11.4402 31.5228 11.3302 31.5428 11.1102L31.4528 10.2102C31.6128 10.1702 31.6928 10.1102 31.6928 10.0302L31.6028 9.7302C31.7028 9.6902 31.8028 9.6302 31.9028 9.5502C32.0028 9.4702 32.1128 9.3902 32.2328 9.3102C32.2328 9.1702 32.1728 9.0902 32.0528 9.0702C31.9728 9.0702 31.9228 9.11019 31.9028 9.1902L31.8428 9.3702C31.6428 9.2702 31.5628 9.1402 31.6028 8.9802L31.6928 8.8002V8.6202L31.8728 8.4402C31.8728 8.4802 31.8728 8.4902 31.8728 8.4702C31.8728 8.4502 31.8828 8.4002 31.9028 8.3202L31.8728 8.0802C31.8528 8.0202 31.8428 7.9702 31.8428 7.9302C31.8428 7.8902 31.8428 7.8602 31.8428 7.8402L31.9628 7.4802C32.0028 7.3802 32.0228 7.2602 32.0228 7.1202C32.0228 6.9802 32.0228 6.8402 32.0228 6.7002L32.0828 6.5202C32.0828 6.4402 32.0828 6.3502 32.0828 6.2502C32.0828 6.1502 32.0728 6.0502 32.0528 5.9502C32.0928 5.7502 32.1428 5.6202 32.2028 5.5602C32.2828 5.4802 32.3228 5.4002 32.3228 5.3202L32.2928 5.1702C32.2928 5.1302 32.2828 5.1102 32.2628 5.1102C32.2428 5.0902 32.2328 5.0702 32.2328 5.0502L32.3228 4.6602C32.3428 4.6602 32.3728 4.6402 32.4128 4.60019C32.3328 4.4002 32.3028 4.2102 32.3228 4.0302C32.3428 3.99019 32.3628 3.9502 32.3828 3.9102C32.4028 3.8702 32.4228 3.8202 32.4428 3.7602L32.4728 3.4902L32.7728 3.25019L32.9228 3.2802L32.7128 3.43019C32.7328 3.4502 32.7528 3.5002 32.7728 3.5802H32.8628L32.9528 3.4902V3.2802C33.0328 3.2402 33.1128 3.1702 33.1928 3.0702C33.1328 2.9302 33.0628 2.85019 32.9828 2.83019L32.9228 2.8902L32.7428 2.8602V2.7702C32.7428 2.6502 32.8928 2.4702 33.1928 2.2302C33.2128 2.2102 33.2228 2.1502 33.2228 2.0502L33.4628 1.8702C33.4828 1.8302 33.5528 1.7502 33.6728 1.6302L34.2428 1.2102C34.2628 1.2302 34.3328 1.2602 34.4528 1.3002C34.4128 1.2802 34.5128 1.2102 34.7528 1.0902C34.7928 1.0702 34.8428 1.06019 34.9028 1.06019C34.9828 1.04019 35.0728 1.04019 35.1728 1.06019C35.1728 1.06019 35.2328 1.08019 35.3528 1.1202C35.4728 1.1202 35.5328 1.0702 35.5328 0.970196C35.5328 0.870196 35.5728 0.820196 35.6528 0.820196C35.7528 0.860196 35.8028 0.890195 35.8028 0.910194V1.0902L35.9228 0.970196C35.9828 0.870196 36.0128 0.800195 36.0128 0.760195V0.700195C36.0128 0.700195 36.1228 0.720195 36.3428 0.760195L36.5228 0.790195C36.6828 0.750196 36.7328 0.720195 36.6728 0.700195C36.7528 0.740195 36.8328 0.780195 36.9128 0.820196C37.0128 0.840196 37.1028 0.870195 37.1828 0.910194C37.2028 0.930194 37.2628 0.920195 37.3628 0.880196L37.5728 0.820196L37.9928 0.790195L38.8328 1.2702L39.1328 1.2102C39.2328 1.2302 39.2828 1.2502 39.2828 1.2702C39.3028 1.31019 39.3128 1.38019 39.3128 1.48019L39.4928 1.75019L39.5228 1.9602C39.5428 2.0202 39.6128 2.0702 39.7328 2.1102C39.7728 2.1102 39.8328 2.0802 39.9128 2.0202C39.9528 2.0802 39.9928 2.1402 40.0328 2.2002C40.0728 2.2602 40.1028 2.3202 40.1228 2.3802L40.3628 2.5602L40.4528 2.8902V2.9202C40.4528 3.0402 40.4928 3.15019 40.5728 3.25019L40.7828 3.2802C40.8228 3.3202 40.8428 3.3702 40.8428 3.43019C40.8428 3.5102 40.8128 3.6302 40.7528 3.7902L40.6928 3.9702C40.8328 4.3302 40.9028 4.5502 40.9028 4.6302C40.9628 4.6902 40.9928 4.7302 40.9928 4.7502L41.0228 4.9002C41.0228 4.9202 41.0228 4.9502 41.0228 4.9902C41.0428 5.0102 41.0528 5.0302 41.0528 5.0502C40.9728 5.0902 40.9028 5.14019 40.8428 5.2002C40.7828 5.2602 40.7128 5.3302 40.6328 5.4102C40.7728 5.5502 40.8428 5.7002 40.8428 5.8602C40.8228 5.9002 40.7628 6.0102 40.6628 6.1902L40.8128 6.7002C40.8128 6.7202 40.7828 6.7602 40.7228 6.8202C40.6628 6.8802 40.6328 6.9202 40.6328 6.9402C40.6728 7.0202 40.7028 7.1102 40.7228 7.2102C40.7428 7.3102 40.7628 7.4102 40.7828 7.5102C40.7428 7.7302 40.6428 7.8302 40.4828 7.8102L39.7628 7.6302H39.1928C39.1528 7.5902 39.0828 7.5902 38.9828 7.6302L38.7728 7.6902C38.7328 7.6902 38.6628 7.6602 38.5628 7.60019L38.3528 7.5402H37.7228C37.6828 7.5402 37.5928 7.4902 37.4528 7.3902C37.4928 7.3302 37.5228 7.2602 37.5428 7.18019C37.5628 7.10019 37.5628 7.0202 37.5428 6.9402L37.5128 6.7902C37.5128 6.7502 37.5028 6.7302 37.4828 6.7302C37.4828 6.7102 37.4828 6.6902 37.4828 6.6702L37.9328 4.9902L37.8728 4.6302C37.8528 4.6502 37.8228 4.6602 37.7828 4.6602C37.6828 4.6602 37.6428 4.5602 37.6628 4.3602L37.6928 4.0302C37.5728 3.79019 37.4728 3.6602 37.3928 3.6402C37.3928 3.6402 37.3428 3.6702 37.2428 3.7302C37.2028 3.7702 37.1428 3.7802 37.0628 3.7602L36.5228 3.5502C36.4828 3.5502 36.4328 3.5502 36.3728 3.5502C36.3128 3.5502 36.2328 3.5602 36.1328 3.5802C36.0528 3.6002 35.9928 3.6602 35.9528 3.7602L35.8928 3.9702C35.8128 3.9902 35.7228 4.0702 35.6228 4.2102C35.6028 4.2302 35.5828 4.2702 35.5628 4.3302C35.5428 4.3702 35.5128 4.4202 35.4728 4.4802L35.5028 4.6302C35.4828 4.7102 35.4628 4.8002 35.4428 4.9002C35.4428 4.9802 35.4228 5.0802 35.3828 5.2002L35.2628 5.4402C35.2628 5.46019 35.2728 5.52019 35.2928 5.6202C35.2728 5.70019 35.2428 5.8802 35.2028 6.1602C35.1828 6.2002 35.1928 6.29019 35.2328 6.43019L35.2928 6.7302C35.1728 6.7502 35.1128 6.8002 35.1128 6.8802C35.1128 6.9002 35.1228 6.9302 35.1428 6.9702C35.1628 7.0102 35.1828 7.0602 35.2028 7.1202L35.2628 7.3302C35.2428 7.3502 35.1728 7.4602 35.0528 7.6602C34.9528 7.8602 34.9028 7.9702 34.9028 7.9902L34.9928 8.2002C35.0528 8.3602 35.0728 8.5102 35.0528 8.6502C35.0328 8.7302 34.9028 8.8102 34.6628 8.8902C34.7428 8.9302 34.8128 8.9802 34.8728 9.0402C34.8728 9.0802 34.8628 9.1702 34.8428 9.3102C34.8228 9.4302 34.7928 9.6002 34.7528 9.8202C34.7928 9.9402 34.8128 10.0802 34.8128 10.2402C34.8128 10.2602 34.8028 10.3002 34.7828 10.3602C34.7628 10.4002 34.7328 10.4602 34.6928 10.5402L34.5728 10.8102C34.5528 10.9502 34.5528 11.0602 34.5728 11.1402C34.6328 11.4602 34.6728 11.5802 34.6928 11.5002C34.6328 11.6402 34.5728 11.8702 34.5128 12.1902C34.5328 12.2902 34.5428 12.3402 34.5428 12.3402L34.4528 12.9702C34.4328 12.9702 34.4028 13.0002 34.3628 13.0602L34.4828 13.2702C34.5428 13.3902 34.5728 13.4602 34.5728 13.4802C34.5728 13.4802 34.5228 13.5502 34.4228 13.6902C34.3228 13.8502 34.2728 13.9302 34.2728 13.9302C34.2728 14.0102 34.3028 14.0502 34.3628 14.0502H34.3028C34.3028 14.1302 34.2928 14.2102 34.2728 14.2902C34.2728 14.3702 34.2628 14.4602 34.2428 14.5602C34.2228 14.6402 34.2128 14.7402 34.2128 14.8602C34.2128 14.9602 34.2128 15.0702 34.2128 15.1902C34.1928 15.2502 34.1828 15.3602 34.1828 15.5202L34.5128 15.7602V16.0002C34.5128 16.0202 34.5728 16.0502 34.6928 16.0902C34.7128 16.2902 34.7928 16.4102 34.9328 16.4502L35.1428 16.3902C35.2628 16.3502 35.3228 16.3302 35.3228 16.3302H36.1028C36.1428 16.2502 36.1828 16.1702 36.2228 16.0902C36.2828 15.9902 36.3528 15.9002 36.4328 15.8202L36.6428 15.5802C36.7028 15.5202 36.7828 15.4802 36.8828 15.4602V15.4302C36.8828 15.3902 36.8628 15.3702 36.8228 15.3702L36.6728 15.3402C36.6728 15.2802 36.7128 15.2102 36.7928 15.1302C36.6928 14.9302 36.6528 14.8102 36.6728 14.7702C36.7128 14.6902 36.7428 14.6002 36.7628 14.5002C36.8028 14.4002 36.8328 14.3002 36.8528 14.2002L36.8228 14.0502V13.9002C36.8228 13.8402 36.8228 13.7702 36.8228 13.6902C36.8228 13.5902 36.8328 13.4802 36.8528 13.3602C36.8528 13.3402 36.8328 13.2902 36.7928 13.2102V12.8202C36.7928 12.6802 36.8628 12.4902 37.0028 12.2502C37.1028 12.2502 37.2328 12.2602 37.3928 12.2802C37.5728 12.2802 37.7628 12.2902 37.9628 12.3102L38.3828 12.4302C38.5028 12.4502 38.5928 12.4802 38.6528 12.5202C38.7328 12.5602 38.7828 12.5802 38.8028 12.5802L39.0128 12.5202C39.1128 12.4802 39.1828 12.4802 39.2228 12.5202C39.2428 12.5202 39.3328 12.5402 39.4928 12.5802C39.6728 12.6002 39.7728 12.6202 39.7928 12.6402H40.1828L40.2428 12.7302L40.0628 13.0302C40.0628 13.0502 40.0628 13.0802 40.0628 13.1202C40.0628 13.1602 40.0528 13.2202 40.0328 13.3002C40.1328 13.4402 40.1828 13.5102 40.1828 13.5102L39.8528 13.9302L39.5528 13.7502L39.7028 13.9302L39.6728 14.0802H39.5228C39.6228 14.1802 39.6928 14.2402 39.7328 14.2602C39.5728 14.3402 39.4728 14.4702 39.4328 14.6502C39.4328 14.7502 39.4528 14.8002 39.4928 14.8002L39.6728 14.7402C39.8528 14.9602 39.9328 15.1002 39.9128 15.1602C39.9128 15.2002 39.8528 15.2702 39.7328 15.3702L39.8228 15.5802C39.8228 15.6202 39.8128 15.6502 39.7928 15.6702L39.7328 15.7602C39.7328 15.8802 39.7328 15.9902 39.7328 16.0902C39.7328 16.1702 39.7228 16.2402 39.7028 16.3002L39.4928 16.5102C39.4928 16.5502 39.4928 16.6002 39.4928 16.6602C39.4928 16.7002 39.4828 16.7602 39.4628 16.8402C39.4428 16.8802 39.3928 16.9602 39.3128 17.0802C39.2528 17.1802 39.1728 17.3102 39.0728 17.4702C39.0528 17.4902 39.0228 17.5102 38.9828 17.5302C38.9628 17.5502 38.9328 17.5802 38.8928 17.6202V17.7702C38.8528 17.8302 38.7928 17.8902 38.7128 17.9502C38.6528 18.0102 38.5828 18.0802 38.5028 18.1602L38.3528 18.2202C38.2928 18.2602 38.2728 18.3102 38.2928 18.3702C38.2728 18.3902 38.2228 18.4002 38.1428 18.4002L37.9628 18.5802C37.9628 18.5802 37.9028 18.6002 37.7828 18.6402C37.7428 18.6802 37.6828 18.7402 37.6028 18.8202C37.5428 18.8802 37.4628 18.9502 37.3628 19.0302C37.2628 19.0902 37.1628 19.1302 37.0628 19.1502C36.9628 19.1902 36.8628 19.2002 36.7628 19.1802L36.6728 19.1502C36.6528 19.1502 36.6028 19.1602 36.5228 19.1802C36.4428 19.2002 36.3228 19.2302 36.1628 19.2702L35.6228 19.3902ZM39.8828 1.9902C39.8828 1.9302 39.8928 1.8902 39.9128 1.8702C39.9128 1.8702 39.9228 1.88019 39.9428 1.90019V1.9902H39.8828ZM35.2928 2.26019C35.2928 2.2402 35.3128 2.2102 35.3528 2.17019L35.4128 2.1402C35.3928 2.1202 35.3428 2.1202 35.2628 2.1402L35.2928 2.26019ZM35.6828 2.4102C35.7428 2.4502 35.7928 2.4102 35.8328 2.2902C35.7928 2.2502 35.7528 2.2502 35.7128 2.2902C35.6728 2.3302 35.6628 2.3702 35.6828 2.4102ZM34.7828 2.83019C34.8228 2.85019 34.8928 2.8302 34.9928 2.7702C34.9128 2.6302 34.8028 2.60019 34.6628 2.68019C34.7028 2.7602 34.7428 2.81019 34.7828 2.83019ZM33.5828 4.60019C33.6228 4.58019 33.6628 4.5702 33.7028 4.5702C33.6628 4.5502 33.6128 4.5302 33.5528 4.5102C33.5128 4.4902 33.4628 4.46019 33.4028 4.42019C33.4028 4.32019 33.4128 4.2602 33.4328 4.2402C33.4128 4.1802 33.3328 4.1002 33.1928 4.0002C33.1128 3.9802 33.0728 4.0302 33.0728 4.1502C33.0528 4.2902 33.0228 4.38019 32.9828 4.42019C33.2028 4.54019 33.3528 4.60019 33.4328 4.60019H33.5828ZM34.3628 4.6302C34.3828 4.6102 34.4228 4.5902 34.4828 4.5702C34.5628 4.5302 34.6528 4.4802 34.7528 4.42019C34.6928 4.40019 34.6428 4.3802 34.6028 4.3602C34.5628 4.3402 34.5228 4.3202 34.4828 4.3002L34.3328 4.1202C34.3328 4.1402 34.3328 4.1802 34.3328 4.2402C34.3528 4.2802 34.3628 4.3202 34.3628 4.3602V4.6302ZM40.0328 5.2302C40.0528 5.2102 40.0328 5.1602 39.9728 5.0802C39.9528 5.0802 39.9228 5.1002 39.8828 5.1402L39.9728 5.1702C39.9928 5.1702 40.0028 5.18019 40.0028 5.2002C40.0228 5.2202 40.0328 5.2302 40.0328 5.2302ZM39.0728 5.6502C39.1128 5.5702 39.1328 5.5202 39.1328 5.5002C39.1328 5.4202 39.0928 5.3502 39.0128 5.2902L38.9228 5.4702C38.9228 5.5302 38.9728 5.5902 39.0728 5.6502ZM38.6528 6.7302L38.7128 6.43019L38.5928 6.4902L38.6528 6.7302ZM39.3128 6.7002C39.3328 6.6602 39.3228 6.62019 39.2828 6.58019C39.2628 6.56019 39.2228 6.56019 39.1628 6.58019C39.1628 6.66019 39.2128 6.7002 39.3128 6.7002ZM33.3428 12.5502C33.4028 12.5502 33.4428 12.4902 33.4628 12.3702C33.4028 12.3502 33.3528 12.3602 33.3128 12.4002C33.2928 12.4202 33.3028 12.4702 33.3428 12.5502ZM32.9828 13.5102L33.2228 13.4802H33.4628L33.5228 13.2402L33.2228 13.2102C33.0628 13.3302 32.9828 13.4302 32.9828 13.5102ZM38.9528 13.7502C39.0528 13.6502 39.0828 13.5802 39.0428 13.5402L38.7728 13.5102C38.7528 13.6502 38.7528 13.7202 38.7728 13.7202L38.9528 13.7502ZM38.9228 14.0502L38.9828 14.0202H39.0728V13.9602C39.0728 13.9402 39.0628 13.9302 39.0428 13.9302C39.0428 13.9302 39.0428 13.9202 39.0428 13.9002C38.9628 13.9202 38.9228 13.9702 38.9228 14.0502ZM37.2728 16.0602C37.3128 16.0402 37.3528 15.9802 37.3928 15.8802C37.3528 15.8602 37.3128 15.8702 37.2728 15.9102C37.2328 15.9502 37.2328 16.0002 37.2728 16.0602ZM35.3828 17.1402C35.4028 17.1002 35.3928 17.0602 35.3528 17.0202C35.3128 16.9802 35.2728 16.9802 35.2328 17.0202C35.2328 17.0602 35.2828 17.1002 35.3828 17.1402ZM34.0628 24.1902C33.8028 24.1702 33.5728 24.1302 33.3728 24.0702C33.1728 24.0102 33.0128 23.9602 32.8928 23.9202C32.8528 23.8202 32.8528 23.7702 32.8928 23.7702C32.9128 23.7502 32.9428 23.7102 32.9828 23.6502C33.0228 23.5902 33.0728 23.5402 33.1328 23.5002C33.1128 23.4802 33.1028 23.4102 33.1028 23.2902C33.1228 22.9302 33.2128 22.7902 33.3728 22.8702L33.7628 22.9302C33.8028 22.9502 33.8528 22.9702 33.9128 22.9902C33.9728 23.0102 34.0428 23.0202 34.1228 23.0202H34.8728C34.9128 23.0202 34.9428 23.0002 34.9628 22.9602C34.9828 22.9402 35.0028 22.9302 35.0228 22.9302L35.2328 23.0202C35.2728 22.9802 35.2928 22.9302 35.2928 22.8702C35.3128 22.8102 35.3428 22.7602 35.3828 22.7202L35.4728 22.5102C35.4728 22.4902 35.4528 22.4602 35.4128 22.4202C35.3928 22.4002 35.3828 22.3802 35.3828 22.3602C35.3428 22.2602 35.3228 22.2102 35.3228 22.2102L35.3828 22.0602C35.4228 22.0402 35.4328 22.0002 35.4128 21.9402C35.3928 21.9002 35.3628 21.8702 35.3228 21.8502C35.3028 21.8502 35.2728 21.8402 35.2328 21.8202C35.1928 21.8202 35.1328 21.8102 35.0528 21.7902L34.8728 21.6102C34.8728 21.6102 34.8128 21.6002 34.6928 21.5802C34.5928 21.5802 34.4428 21.5702 34.2428 21.5502L33.9728 21.5802C33.9528 21.5802 33.9228 21.5702 33.8828 21.5502C33.8428 21.5502 33.8128 21.5502 33.7928 21.5502C33.7728 21.5502 33.7328 21.5502 33.6728 21.5502C33.6128 21.5702 33.5728 21.5702 33.5528 21.5502L33.3728 21.1302C33.3328 21.0902 33.3128 21.0802 33.3128 21.1002C33.2928 21.0802 33.2828 21.0602 33.2828 21.0402C33.3028 21.0202 33.3128 21.0102 33.3128 21.0102L33.3428 20.8002C33.3628 20.7602 33.3728 20.7202 33.3728 20.6802C33.3928 20.6402 33.4228 20.6102 33.4628 20.5902C33.5028 20.4902 33.5228 20.3502 33.5228 20.1702C33.5628 20.0502 33.6328 19.9302 33.7328 19.8102C33.6928 19.7902 33.6728 19.7102 33.6728 19.5702C33.7128 19.4302 33.7428 19.2802 33.7628 19.1202C33.8028 18.9802 33.8428 18.7702 33.8828 18.4902C33.9028 18.4702 33.9828 18.4602 34.1228 18.4602C34.1828 18.4602 34.2728 18.4702 34.3928 18.4902C34.5128 18.4902 34.6628 18.5102 34.8428 18.5502H35.2028C35.2428 18.5702 35.2828 18.5902 35.3228 18.6102C35.3628 18.6102 35.3828 18.6102 35.3828 18.6102L35.6528 18.6402C35.6728 18.6402 35.6828 18.6702 35.6828 18.7302C35.6828 18.8102 35.6728 18.9002 35.6528 19.0002C35.6528 19.1002 35.6328 19.1702 35.5928 19.2102C35.5728 19.2702 35.4828 19.3902 35.3228 19.5702C35.3628 19.6102 35.3828 19.6902 35.3828 19.8102L35.2928 20.0802C35.2528 20.2202 35.2528 20.2902 35.2928 20.2902C35.6728 20.2902 35.8528 20.3002 35.8328 20.3202C35.8328 20.3402 35.8628 20.3502 35.9228 20.3502C35.9428 20.3502 35.9628 20.3502 35.9828 20.3502C36.0028 20.3702 36.0428 20.3802 36.1028 20.3802C36.1228 20.3602 36.2028 20.3502 36.3428 20.3502C36.3828 20.3702 36.4228 20.3902 36.4628 20.4102C36.5228 20.4302 36.5928 20.4602 36.6728 20.5002C36.7728 20.5402 36.8528 20.5702 36.9128 20.5902C36.9928 20.6302 37.0428 20.6802 37.0628 20.7402C37.1628 20.8002 37.2528 20.8402 37.3328 20.8602C37.4328 20.9002 37.4928 20.9902 37.5128 21.1302L37.6928 21.4902C37.7128 21.5102 37.7228 21.5602 37.7228 21.6402C37.7228 21.7402 37.7228 21.8002 37.7228 21.8202C37.7228 21.8602 37.7128 21.9302 37.6928 22.0302C37.6928 22.1302 37.6828 22.2102 37.6628 22.2702C37.5628 22.4102 37.5128 22.4802 37.5128 22.4802C37.4928 22.7202 37.4328 22.8802 37.3328 22.9602C37.2528 23.0602 37.1628 23.1702 37.0628 23.2902C37.0428 23.3102 37.0128 23.3302 36.9728 23.3502C36.9528 23.3702 36.9128 23.4102 36.8528 23.4702C36.8528 23.5302 36.8328 23.6002 36.7928 23.6802C36.7328 23.7002 36.6628 23.7202 36.5828 23.7402C36.5028 23.7602 36.4128 23.7902 36.3128 23.8302C36.0528 23.9302 35.7528 24.0102 35.4128 24.0702C35.0928 24.1502 34.8528 24.1902 34.6928 24.1902C34.6128 24.1902 34.5628 24.1602 34.5428 24.1002C34.5028 24.0402 34.4428 24.0102 34.3628 24.0102C34.2828 24.0102 34.2428 24.0402 34.2428 24.1002C34.1828 24.1602 34.1228 24.1902 34.0628 24.1902ZM37.7228 21.8202V21.8502C37.7228 21.8502 37.7228 21.8402 37.7228 21.8202Z" fill="#F65C5C"/>
<path d="M28.9752 19.4503C28.9552 19.4303 28.9152 19.4103 28.8552 19.3903C28.7952 19.3703 28.7152 19.3503 28.6152 19.3303H28.0752C28.0352 19.3503 27.9552 19.3603 27.8352 19.3603C27.8152 19.3403 27.7752 19.3203 27.7152 19.3003C27.6752 19.2803 27.6252 19.2603 27.5652 19.2403L27.2652 19.2703C27.1652 19.2903 27.0852 19.2903 27.0252 19.2703C26.9852 19.2703 26.9552 19.2703 26.9352 19.2703C26.8152 19.2703 26.7152 19.2303 26.6352 19.1503V18.9703C26.5752 18.7703 26.5852 18.6403 26.6652 18.5803C26.6452 18.5603 26.6052 18.5503 26.5452 18.5503C26.5252 18.5103 26.5252 18.4803 26.5452 18.4603C26.5652 18.4203 26.5752 18.3903 26.5752 18.3703L26.6052 18.2803C26.6052 18.2203 26.5452 18.1503 26.4252 18.0703C26.4252 17.9903 26.4952 17.9103 26.6352 17.8303V17.8003C26.5552 17.7603 26.4952 17.7103 26.4552 17.6503C26.4352 17.6103 26.4152 17.5103 26.3952 17.3503C26.3752 17.1903 26.3552 16.9803 26.3352 16.7203C26.1952 16.6003 26.1252 16.4403 26.1252 16.2403C26.1252 16.1803 26.1752 15.9703 26.2752 15.6103C26.2152 15.5503 26.1152 15.5103 25.9752 15.4903C25.9352 15.4503 25.9252 15.4103 25.9452 15.3703L26.0652 15.0103C26.0452 15.0103 26.0152 14.9603 25.9752 14.8603C25.9552 14.8203 25.9352 14.7703 25.9152 14.7103C25.8952 14.6503 25.8652 14.5703 25.8252 14.4703C25.8452 14.4103 25.8552 14.2803 25.8552 14.0803C25.8552 14.0803 25.8352 14.0603 25.7952 14.0203C25.7952 13.9803 25.7752 13.8903 25.7352 13.7503C25.7152 13.5903 25.6852 13.4003 25.6452 13.1803C25.6052 12.9603 25.5652 12.7703 25.5252 12.6103C25.5052 12.4503 25.4952 12.3203 25.4952 12.2203C25.4952 12.0803 25.5252 11.9803 25.5852 11.9203C25.5652 11.8803 25.4752 11.8403 25.3152 11.8003C25.0752 11.8003 24.8452 11.8803 24.6252 12.0403L24.4752 12.9403C24.4552 12.9603 24.4252 12.9803 24.3852 13.0003C24.3652 13.0203 24.3352 13.0503 24.2952 13.0903V13.1503C24.2952 13.1703 24.2952 13.2103 24.2952 13.2703C24.3152 13.3103 24.3352 13.3603 24.3552 13.4203C24.4352 13.4203 24.5252 13.4603 24.6252 13.5403L24.5652 13.9003C24.5252 14.0403 24.5352 14.1503 24.5952 14.2303L24.3552 14.2003L24.2952 14.3203L24.3852 14.4403C24.4452 14.5203 24.4752 14.5803 24.4752 14.6203L24.2652 15.4903L24.3552 15.8503C24.3552 15.9103 24.3452 15.9603 24.3252 16.0003L24.2652 16.1503C24.2852 16.2503 24.3052 16.3703 24.3252 16.5103C24.3452 16.6303 24.3652 16.7603 24.3852 16.9003C24.3852 16.9403 24.3152 17.0303 24.1752 17.1703C24.0152 17.3703 23.9352 17.4703 23.9352 17.4703C23.9352 17.5503 24.0052 17.6103 24.1452 17.6503C24.2852 17.6703 24.3552 17.6803 24.3552 17.6803L24.2652 19.0903L24.2052 19.2103C24.1652 19.1703 24.0852 19.1103 23.9652 19.0303L23.7852 19.0603C23.7252 19.0803 23.6752 19.0903 23.6352 19.0903L23.1852 18.9403C23.1852 18.9403 23.1452 18.9603 23.0652 19.0003C22.9852 19.0403 22.9352 19.0603 22.9152 19.0603C22.6552 19.0803 22.4752 19.0803 22.3752 19.0603C22.3352 19.0403 22.2752 19.0103 22.1952 18.9703C22.1152 18.9303 22.0252 18.8803 21.9252 18.8203H21.8352C21.7552 18.9603 21.6752 19.0303 21.5952 19.0303L21.2352 18.9403C21.2152 18.9603 21.1852 18.9703 21.1452 18.9703C21.1052 18.9703 21.0652 18.9803 21.0252 19.0003C20.8652 19.0003 20.7852 18.9303 20.7852 18.7903C20.8452 18.7303 20.9152 18.6303 20.9952 18.4903C20.9752 18.4503 20.9652 18.3403 20.9652 18.1603C20.9652 18.1203 20.9652 18.0803 20.9652 18.0403C20.9852 17.9803 21.0052 17.9103 21.0252 17.8303L21.0852 17.5903C21.0852 17.5703 21.0852 17.5303 21.0852 17.4703C21.0852 17.4103 21.0752 17.3303 21.0552 17.2303L20.9952 16.8703C21.0152 15.9303 21.0752 15.2003 21.1752 14.6803L21.2652 14.4103C21.2652 14.3503 21.2552 14.2903 21.2352 14.2303L21.1752 14.0503C21.1752 14.0303 21.1952 13.9803 21.2352 13.9003C21.1952 13.8403 21.1952 13.7603 21.2352 13.6603L21.3552 13.4203C21.3552 13.4003 21.3552 13.3703 21.3552 13.3303C21.3552 13.2903 21.3452 13.2303 21.3252 13.1503L21.2652 12.8803C21.2652 12.8603 21.2952 12.7303 21.3552 12.4903C21.4152 12.2503 21.4552 12.1203 21.4752 12.1003C21.3952 11.9803 21.3452 11.8603 21.3252 11.7403C21.3652 11.7003 21.4052 11.6603 21.4452 11.6203C21.4852 11.5803 21.5252 11.5303 21.5652 11.4703C21.5652 11.3503 21.5052 11.2203 21.3852 11.0803L21.5652 7.9603C21.6052 7.9203 21.6452 7.8703 21.6852 7.8103C21.7452 7.7503 21.7952 7.6903 21.8352 7.6303C21.8152 7.6103 21.7752 7.6003 21.7152 7.6003L21.6252 7.0603C21.6252 6.8803 21.6352 6.7503 21.6552 6.6703L21.6252 6.5803C21.6452 6.5603 21.6752 6.5103 21.7152 6.4303V6.2203C21.7152 6.1803 21.7052 6.1403 21.6852 6.1003C21.6852 6.0603 21.6852 6.0303 21.6852 6.0103C21.7452 5.9503 21.8052 5.8603 21.8652 5.7403L21.6852 5.2903V4.9303C21.7052 4.8703 21.7352 4.8003 21.7752 4.7203C21.8152 4.6403 21.8552 4.5503 21.8952 4.4503C21.8952 4.4303 21.8852 4.4203 21.8652 4.4203C21.8652 4.4003 21.8652 4.3803 21.8652 4.3603C21.8652 4.3003 21.8752 4.2403 21.8952 4.1803C21.9352 4.1203 21.9652 4.0503 21.9852 3.9703C21.9252 3.9103 21.8652 3.8203 21.8052 3.7003L21.8352 3.3103C21.8352 3.2303 21.9352 3.0903 22.1352 2.8903C22.3152 2.7103 22.3952 2.5603 22.3752 2.4403L21.7452 2.2003C21.7852 2.1003 21.8452 2.0403 21.9252 2.0203L21.8652 1.2103C21.8052 1.1103 21.7752 1.0403 21.7752 1.0003C21.9752 0.920298 22.1052 0.890297 22.1652 0.910297C22.2052 0.910297 22.2752 0.950297 22.3752 1.0303C22.4552 1.1103 22.5352 1.1503 22.6152 1.1503C22.6552 1.1103 22.7052 1.0703 22.7652 1.0303C22.8452 0.990298 22.9252 0.960298 23.0052 0.940297C23.0452 0.980298 23.1052 1.0303 23.1852 1.0903C23.2852 1.1303 23.3852 1.1803 23.4852 1.2403L23.5152 1.1203L23.7252 1.0603C23.8252 1.0003 23.8852 0.980299 23.9052 1.0003C23.9452 1.0003 24.0352 1.0603 24.1752 1.1803C24.3152 1.3203 24.4052 1.3903 24.4452 1.3903C24.4852 1.3903 24.5752 1.3403 24.7152 1.2403C24.8152 1.2003 24.8952 1.1703 24.9552 1.1503C25.0352 1.1303 25.0952 1.1303 25.1352 1.1503L25.2552 1.1803C25.2552 1.1803 25.2952 1.1603 25.3752 1.1203C25.4152 1.0803 25.4552 1.0603 25.4952 1.0603C25.5752 1.0603 25.6852 1.1603 25.8252 1.3603C25.8652 1.3603 25.9152 1.3203 25.9752 1.2403C26.0352 1.1803 26.0752 1.1603 26.0952 1.1803L26.5752 1.3903C26.6152 1.3903 26.6552 1.3903 26.6952 1.3903C26.7352 1.3703 26.7752 1.3503 26.8152 1.3303L26.9652 1.5103L27.5952 1.6003C27.6152 1.6203 27.6352 1.6403 27.6552 1.6603C27.6752 1.6803 27.7052 1.7003 27.7452 1.7203C28.0452 1.7403 28.2952 1.7703 28.4952 1.8103L29.0352 2.1703C29.0352 2.1703 29.0552 2.2103 29.0952 2.2903V2.3203C29.0952 2.4603 29.1952 2.5903 29.3952 2.7103L29.8752 2.9803V3.2503L30.0252 3.5803C30.0052 3.7003 29.9752 3.8303 29.9352 3.9703C29.8952 4.0903 29.8552 4.2203 29.8152 4.3603C29.8152 4.3803 29.8252 4.3903 29.8452 4.3903L29.9952 4.2403C30.0752 4.1603 30.1452 4.1203 30.2052 4.1203L30.2652 4.1503C30.2852 4.1703 30.3052 4.2303 30.3252 4.3303C30.3452 4.4303 30.3752 4.5703 30.4152 4.7503L30.5052 4.9003V5.2003L30.4152 5.2903C30.4552 5.4703 30.4652 5.5703 30.4452 5.5903C30.3852 5.6103 30.3252 5.6703 30.2652 5.7703C30.2652 5.7703 30.2852 5.7903 30.3252 5.8303C30.3452 5.8503 30.4152 5.8603 30.5352 5.8603V5.9203C30.5352 5.9603 30.5152 6.0603 30.4752 6.2203H30.4452C30.4252 6.2203 30.3952 6.2903 30.3552 6.4303C30.3152 6.5703 30.3152 6.6403 30.3552 6.6403C30.4152 6.6403 30.4652 6.6203 30.5052 6.5803C30.5252 6.5403 30.5352 6.4903 30.5352 6.4303C30.5352 6.3703 30.5352 6.3603 30.5352 6.4003L30.5052 6.8503C30.4852 6.8703 30.4552 6.9203 30.4152 7.0003C30.4152 7.0803 30.4052 7.1903 30.3852 7.3303C30.3852 7.4703 30.3752 7.6303 30.3552 7.8103L30.2052 8.0803C30.1652 8.2203 30.1352 8.3803 30.1152 8.5603L30.1452 8.7703C30.1252 8.7903 30.1152 8.8103 30.1152 8.8303C30.1152 8.8503 30.1052 8.8803 30.0852 8.9203C30.0652 9.1803 29.9752 9.3703 29.8152 9.4903V9.6103C29.8152 9.6503 29.8052 9.7003 29.7852 9.7603C29.7852 9.8003 29.7752 9.8503 29.7552 9.9103C29.6752 9.9703 29.4352 10.3003 29.0352 10.9003L28.7652 11.0203C28.6452 11.0803 28.5652 11.1703 28.5252 11.2903C28.5852 11.3903 28.6352 11.5203 28.6752 11.6803C28.6752 11.8203 28.6252 11.8903 28.5252 11.8903C28.4052 11.8903 28.3452 11.9003 28.3452 11.9203C28.3452 11.9803 28.4152 12.0103 28.5552 12.0103C28.6552 12.0103 28.7052 12.0703 28.7052 12.1903L28.6752 12.5503C28.3152 12.6103 28.1352 12.6703 28.1352 12.7303C28.1352 12.7703 28.3452 12.8103 28.7652 12.8503C28.7452 12.8703 28.7152 12.9603 28.6752 13.1203L28.8252 13.2103L29.0052 13.9603L29.1252 14.1703C28.9852 14.2703 28.8652 14.4103 28.7652 14.5903L28.8252 14.7103C28.9252 14.7703 29.0152 14.8703 29.0952 15.0103C29.1352 15.0703 29.1652 15.1703 29.1852 15.3103L29.3952 15.4603C29.3952 15.5003 29.3952 15.5503 29.3952 15.6103C29.3952 15.6703 29.4052 15.7303 29.4252 15.7903C29.4052 15.8303 29.3952 15.9303 29.3952 16.0903C29.4552 16.1503 29.4852 16.2303 29.4852 16.3303L29.5452 16.9903C29.5652 17.0103 29.5852 17.0503 29.6052 17.1103C29.6252 17.1703 29.6452 17.2503 29.6652 17.3503C29.5652 17.4503 29.5152 17.5403 29.5152 17.6203C29.4952 17.7403 29.5352 17.8003 29.6352 17.8003C29.6552 17.8003 29.7052 17.7803 29.7852 17.7403L29.8152 18.2503C29.8152 18.2503 29.9152 18.4803 30.1152 18.9403C30.1352 18.9603 30.1452 19.0203 30.1452 19.1203C30.1452 19.3403 30.0652 19.4503 29.9052 19.4503C29.7252 19.4503 29.6052 19.4203 29.5452 19.3603C29.4852 19.2803 29.4452 19.2403 29.4252 19.2403C29.3252 19.3203 29.1752 19.3903 28.9752 19.4503ZM26.0052 2.2903C26.0252 2.2503 26.0152 2.2103 25.9752 2.1703C25.9352 2.1303 25.8952 2.1303 25.8552 2.1703C25.8552 2.2103 25.9052 2.2503 26.0052 2.2903ZM22.6152 3.7903L22.7352 3.7003C22.7352 3.6803 22.6952 3.6803 22.6152 3.7003C22.5952 3.7003 22.5952 3.7303 22.6152 3.7903ZM22.9752 4.0303C23.0352 4.0503 23.0952 4.0203 23.1552 3.9403C23.1152 3.9003 23.0852 3.8803 23.0652 3.8803C23.0052 3.8803 22.9752 3.9303 22.9752 4.0303ZM28.5252 4.2703C28.5852 4.2903 28.6452 4.2603 28.7052 4.1803C28.6852 4.1603 28.6552 4.1503 28.6152 4.1503C28.5552 4.1503 28.5252 4.1903 28.5252 4.2703ZM25.8552 9.1903L26.1552 8.9803L26.5452 8.9203L26.5752 8.8003L26.5152 8.5903C26.5352 8.5703 26.5652 8.5403 26.6052 8.5003C26.6652 8.4603 26.7352 8.4103 26.8152 8.3503C26.8352 8.2703 26.8952 8.2003 26.9952 8.1403C26.9952 7.9403 27.0252 7.6503 27.0852 7.2703C27.0852 7.1903 27.0852 7.0903 27.0852 6.9703C27.1052 6.8503 27.1252 6.7203 27.1452 6.5803C27.1652 6.5403 27.1852 6.5003 27.2052 6.4603C27.2252 6.4003 27.2452 6.3303 27.2652 6.2503L27.2052 6.1303C27.1652 6.0503 27.1452 6.0103 27.1452 6.0103C27.1252 5.9503 27.1152 5.8703 27.1152 5.7703C27.1152 5.7103 27.1152 5.6403 27.1152 5.5603C27.1352 5.4803 27.1552 5.3903 27.1752 5.2903L27.2052 4.9003V4.8403C27.2052 4.6403 27.0152 4.5103 26.6352 4.4503L26.2452 4.3903L25.9152 4.3303C25.8352 4.3303 25.7452 4.3403 25.6452 4.3603C25.5652 4.3603 25.4752 4.3703 25.3752 4.3903C25.2552 4.4303 25.1452 4.5203 25.0452 4.6603L25.0152 4.7503C24.9152 4.8503 24.8452 4.9503 24.8052 5.0503C24.8052 5.0703 24.8152 5.1103 24.8352 5.1703C24.8752 5.2103 24.9052 5.2803 24.9252 5.3803L25.0452 5.7103C25.0052 5.7503 24.9452 5.8303 24.8652 5.9503C24.8452 6.0303 24.8152 6.1103 24.7752 6.1903C24.7552 6.2703 24.7252 6.3603 24.6852 6.4603C24.6852 6.4603 24.7352 6.5303 24.8352 6.6703C24.9352 6.8303 24.9852 6.9103 24.9852 6.9103C24.9652 6.9903 24.9352 7.0703 24.8952 7.1503C24.8752 7.2103 24.8552 7.2903 24.8352 7.3903V7.8103L24.8052 8.3203V8.4103C24.8052 8.5903 24.8552 8.7303 24.9552 8.8303C24.9952 8.8903 25.0552 8.9503 25.1352 9.0103C25.1552 9.0103 25.2052 8.9803 25.2852 8.9203C25.3452 8.8603 25.3852 8.8303 25.4052 8.8303C25.4652 8.8303 25.5952 8.9503 25.7952 9.1903H25.8552ZM28.0752 6.3403C28.1952 6.3403 28.3552 6.1903 28.5552 5.8903C28.4952 5.8303 28.4552 5.7703 28.4352 5.7103L28.1652 5.6203C28.0852 5.6203 27.9852 5.6803 27.8652 5.8003C27.8652 5.9603 27.9352 6.1403 28.0752 6.3403ZM22.6452 6.9103C22.7052 6.9303 22.7652 6.9003 22.8252 6.8203C22.7852 6.7803 22.7552 6.7603 22.7352 6.7603C22.6752 6.7603 22.6452 6.8103 22.6452 6.9103ZM23.4252 9.8203C23.4452 9.8003 23.4552 9.7703 23.4552 9.7303C23.4552 9.6703 23.4152 9.6403 23.3352 9.6403C23.3152 9.7003 23.3452 9.7603 23.4252 9.8203ZM25.6152 9.7603C25.6552 9.7803 25.7152 9.7503 25.7952 9.6703C25.7752 9.6503 25.7352 9.6403 25.6752 9.6403C25.6152 9.6403 25.5952 9.6803 25.6152 9.7603ZM27.8652 10.7203L27.9552 10.6603C27.9552 10.6203 27.9452 10.5903 27.9252 10.5703L27.8652 10.7203ZM24.3252 11.2903C24.3452 11.2503 24.3352 11.2103 24.2952 11.1703C24.2752 11.1303 24.2352 11.1403 24.1752 11.2003C24.1752 11.2603 24.2252 11.2903 24.3252 11.2903ZM26.6352 11.6203C26.6952 11.6403 26.7452 11.6303 26.7852 11.5903C26.8052 11.5703 26.7952 11.5203 26.7552 11.4403C26.7152 11.4403 26.6752 11.5003 26.6352 11.6203ZM28.0152 13.5403C28.0352 13.5003 28.0252 13.4603 27.9852 13.4203C27.9652 13.4003 27.9152 13.4103 27.8352 13.4503C27.8352 13.5103 27.8952 13.5403 28.0152 13.5403ZM27.0552 15.8803C27.0952 15.8803 27.1552 15.8503 27.2352 15.7903C27.3152 15.7503 27.3652 15.7303 27.3852 15.7303H27.4152V15.3703L27.0552 15.2803C27.0552 15.3803 27.0652 15.4403 27.0852 15.4603C27.0852 15.4603 27.0752 15.5303 27.0552 15.6703C27.0352 15.7103 27.0252 15.7703 27.0252 15.8503C27.0252 15.8703 27.0352 15.8803 27.0552 15.8803ZM22.0752 16.2703C22.1952 16.2103 22.2552 16.1503 22.2552 16.0903C22.2552 16.0103 22.1852 15.9403 22.0452 15.8803L21.8052 15.7603L21.7452 15.8203C21.7852 15.9003 21.8352 15.9803 21.8952 16.0603C21.9552 16.1203 22.0152 16.1903 22.0752 16.2703ZM21.9252 17.9803C21.9452 17.9403 21.9352 17.9003 21.8952 17.8603C21.8752 17.8203 21.8352 17.8303 21.7752 17.8903C21.7752 17.9503 21.8252 17.9803 21.9252 17.9803ZM22.6752 17.8603H22.5852C22.6052 17.8803 22.6352 17.9303 22.6752 18.0103V17.8603Z" fill="#F65C5C"/>
<path d="M11.1181 19.3904C10.9781 19.3904 10.8681 19.3704 10.7881 19.3304C10.7881 19.0904 10.8181 18.7504 10.8781 18.3104C10.9781 18.2704 11.0381 18.1904 11.0581 18.0704V17.7404C11.0581 17.6404 11.0581 17.5104 11.0581 17.3504C11.0781 17.1704 11.0881 16.9804 11.0881 16.7804C11.1881 16.7404 11.2381 16.6704 11.2381 16.5704V16.2704C11.2381 16.2704 11.2181 16.2304 11.1781 16.1504V15.5804C11.1381 15.4804 11.1281 15.3704 11.1481 15.2504L11.1781 15.0404C11.1781 15.0004 11.1781 14.9604 11.1781 14.9204C11.1981 14.8804 11.2081 14.8504 11.2081 14.8304C11.2281 14.8104 11.2481 14.7904 11.2681 14.7704C11.2881 14.7504 11.3081 14.7204 11.3281 14.6804C11.3681 14.5604 11.3881 14.4604 11.3881 14.3804C11.3881 14.3604 11.3581 14.3104 11.2981 14.2304C11.2381 14.1704 11.2081 14.1204 11.2081 14.0804C11.2081 14.1004 11.2481 14.0304 11.3281 13.8704C11.3881 13.7704 11.4181 13.6604 11.4181 13.5404L11.9581 13.0604C11.8981 13.0404 11.8381 13.0004 11.7781 12.9404L11.7481 12.7304C11.7481 12.6704 11.7181 12.6104 11.6581 12.5504C11.5781 12.4904 11.5381 12.4304 11.5381 12.3704V12.2204C11.5381 12.1804 11.5381 12.1204 11.5381 12.0404C11.5381 11.9404 11.5481 11.8404 11.5681 11.7404C11.5881 11.7204 11.5981 11.6904 11.5981 11.6504C11.5981 11.6104 11.6081 11.5604 11.6281 11.5004L11.5381 11.2004C11.5781 11.1604 11.6081 11.1004 11.6281 11.0204C11.6681 10.9204 11.7081 10.8204 11.7481 10.7204V10.6604C11.7481 10.6204 11.7281 10.5204 11.6881 10.3604V10.3304C11.6881 10.2904 11.6881 10.2504 11.6881 10.2104C11.7081 10.1504 11.7181 10.0804 11.7181 10.0004L11.7481 9.67043C11.7681 9.45043 11.7781 9.29043 11.7781 9.19043C11.7981 9.09043 11.8081 9.06043 11.8081 9.10043C11.8081 8.84043 11.7981 8.72043 11.7781 8.74043C11.7981 8.70043 11.8181 8.66043 11.8381 8.62043C11.8581 8.58043 11.8781 8.52043 11.8981 8.44043L11.9281 8.05043C11.9881 7.99043 12.0481 7.87043 12.1081 7.69043C12.0681 7.59043 12.0281 7.44043 11.9881 7.24043C11.9881 7.22043 12.0181 7.18043 12.0781 7.12043C12.1381 7.06043 12.1681 7.02043 12.1681 7.00043L12.0181 6.82043V6.67043C11.9981 6.55043 12.0081 6.43043 12.0481 6.31043C12.1281 6.27043 12.1781 6.21043 12.1981 6.13043V6.04043C12.1981 5.98043 12.1981 5.90043 12.1981 5.80043C12.1981 5.70043 12.1881 5.58043 12.1681 5.44043L12.1081 5.26043C12.0881 5.16043 12.1081 5.08043 12.1681 5.02043L12.3481 4.90043C12.3281 4.86043 12.3181 4.80043 12.3181 4.72043C12.3181 4.62043 12.3181 4.52043 12.3181 4.42043C12.3181 4.38043 12.3281 4.34043 12.3481 4.30043C12.3681 4.26043 12.3881 4.20043 12.4081 4.12043L12.4681 3.88043C12.4681 3.88043 12.4481 3.84043 12.4081 3.76043C12.3481 3.70043 12.3181 3.66043 12.3181 3.64043C12.3181 3.50043 12.3581 3.38043 12.4381 3.28043C12.5181 3.18043 12.5581 3.08043 12.5581 2.98043L12.4081 2.71043C12.4081 2.67043 12.4081 2.63043 12.4081 2.59043C12.4081 2.55043 12.4181 2.50043 12.4381 2.44043C12.4581 2.40043 12.4781 2.36043 12.4981 2.32043C12.5181 2.28043 12.5381 2.22043 12.5581 2.14043L12.4981 1.42043C12.4981 1.26043 12.5581 1.17043 12.6781 1.15043C12.7781 1.15043 12.8681 1.18043 12.9481 1.24043C13.0281 1.32043 13.0781 1.36043 13.0981 1.36043L13.8781 1.09043L14.1181 1.12043L14.3281 1.18043L14.4781 1.12043C14.5581 1.08043 14.5981 1.06043 14.5981 1.06043H15.0481C15.0481 1.08043 15.0781 1.10043 15.1381 1.12043C15.1981 1.14043 15.2481 1.15043 15.2881 1.15043L15.7081 1.06043C15.7481 1.02043 15.7981 1.02043 15.8581 1.06043L15.9781 1.09043C16.0181 1.09043 16.1181 1.04043 16.2781 0.94043L16.4281 0.97043L16.4581 1.57043C16.4181 1.69043 16.3781 1.78043 16.3381 1.84043C16.2981 1.92043 16.2781 1.98043 16.2781 2.02043V2.14043C16.1981 2.16043 16.1581 2.25043 16.1581 2.41043L16.0381 2.44043C15.9181 2.30043 15.8081 2.21043 15.7081 2.17043V2.23043C15.7081 2.27043 15.7481 2.34043 15.8281 2.44043C15.9081 2.54043 15.9481 2.62043 15.9481 2.68043L15.9181 2.71043C15.8781 2.75043 15.8581 2.81043 15.8581 2.89043L16.2181 2.86043C16.2181 2.82043 16.2181 2.78043 16.2181 2.74043C16.2381 2.68043 16.2581 2.61043 16.2781 2.53043H16.3681C16.4081 2.61043 16.4981 2.73043 16.6381 2.89043L16.6681 3.07043C16.6881 3.09043 16.7081 3.11043 16.7281 3.13043C16.7481 3.15043 16.7681 3.18043 16.7881 3.22043C16.7881 3.24043 16.7681 3.27043 16.7281 3.31043C16.6881 3.39043 16.6681 3.44043 16.6681 3.46043C16.6681 3.46043 16.7481 3.57043 16.9081 3.79043C17.0481 3.99043 17.1181 4.11043 17.1181 4.15043C17.1181 4.21043 17.0581 4.27043 16.9381 4.33043L16.7281 4.45043V4.51043L17.0581 4.66043C17.0781 4.72043 17.1081 4.83043 17.1481 4.99043C17.1881 5.01043 17.2481 5.08043 17.3281 5.20043L17.2381 5.41043C17.1781 5.55043 17.1481 5.63043 17.1481 5.65043L17.5081 6.13043L17.3581 6.34043C17.3781 6.36043 17.4481 6.41043 17.5681 6.49043V6.82043C17.6081 6.88043 17.6381 6.97043 17.6581 7.09043V7.15043C17.6581 7.27043 17.6281 7.39043 17.5681 7.51043L17.7781 7.63043L17.9581 8.23043L17.8681 8.47043C17.9081 8.51043 17.9381 8.56043 17.9581 8.62043V8.77043C17.9581 8.91043 18.0481 9.04043 18.2281 9.16043L17.8981 9.49043C17.7381 9.65043 17.6581 9.76043 17.6581 9.82043C17.6581 9.92043 17.7981 9.99043 18.0781 10.0304C18.3581 10.0704 18.5081 10.1704 18.5281 10.3304C18.5281 10.3904 18.4981 10.4504 18.4381 10.5104C18.4981 10.7104 18.5281 10.8704 18.5281 10.9904C18.5281 10.9904 18.5081 11.0204 18.4681 11.0804C18.4481 11.1404 18.4381 11.1804 18.4381 11.2004L18.7081 11.7404C18.7081 11.7804 18.6781 11.8504 18.6181 11.9504L18.7981 12.1304C18.7981 12.2504 18.8081 12.3504 18.8281 12.4304C18.8681 12.4704 18.9181 12.5304 18.9781 12.6104C19.0381 12.6904 19.0681 12.8004 19.0681 12.9404C19.0881 12.9604 19.0681 13.0304 19.0081 13.1504C18.9481 13.2904 18.9181 13.3804 18.9181 13.4204C18.9181 13.4404 18.9881 13.5504 19.1281 13.7504C19.1281 13.7704 19.1281 13.8104 19.1281 13.8704C19.1481 13.9104 19.1681 13.9604 19.1881 14.0204C19.2281 14.0404 19.2681 14.0804 19.3081 14.1404C19.3481 14.1804 19.3881 14.2304 19.4281 14.2904C19.4281 14.3704 19.3881 14.4204 19.3081 14.4404L19.1281 14.5304V14.7704C19.1681 14.7904 19.2081 14.8104 19.2481 14.8304C19.3081 14.8504 19.3781 14.8804 19.4581 14.9204C19.4981 14.9604 19.5181 15.0904 19.5181 15.3104L19.4581 15.4004C19.4581 15.5404 19.5181 15.6604 19.6381 15.7604L19.8781 15.8504L19.7281 16.0604C19.7481 16.0804 19.7681 16.1004 19.7881 16.1204C19.8081 16.1404 19.8281 16.1704 19.8481 16.2104V16.3904H19.6381C19.6181 16.4104 19.6081 16.4204 19.6081 16.4204C19.6281 16.4204 19.6281 16.4304 19.6081 16.4504L19.5481 16.5104C19.6681 16.6104 19.7981 16.7504 19.9381 16.9304L20.0881 17.5004V17.9204C20.1681 18.0404 20.2381 18.2204 20.2981 18.4604L20.2681 18.5504C20.0881 18.6704 19.9181 18.7304 19.7581 18.7304L19.5181 18.6404L19.1281 18.7004C19.0281 18.7204 18.9481 18.7404 18.8881 18.7604C18.8281 18.7804 18.7881 18.7904 18.7681 18.7904L18.6181 18.7604C18.5581 18.7404 18.5181 18.7404 18.4981 18.7604C18.4781 18.7604 18.4581 18.7604 18.4381 18.7604C18.3981 18.7804 18.3381 18.8004 18.2581 18.8204C18.1981 18.8404 18.1281 18.8504 18.0481 18.8504H17.7181C17.6781 18.8504 17.6281 18.8604 17.5681 18.8804C17.5281 18.9204 17.4581 18.9604 17.3581 19.0004C17.1781 19.0004 17.0781 18.8704 17.0581 18.6104C17.0581 18.5904 17.1381 18.4404 17.2981 18.1604C17.3781 18.0204 17.4381 17.9104 17.4781 17.8304C17.5181 17.7504 17.5481 17.6904 17.5681 17.6504L17.2981 17.7404C17.1581 17.8004 17.0481 17.8304 16.9681 17.8304H16.9381L16.8481 17.3204L16.6981 16.9904C16.6981 16.8504 16.7781 16.7204 16.9381 16.6004C16.9181 16.6004 16.8681 16.5504 16.7881 16.4504C16.7081 16.3704 16.6581 16.2804 16.6381 16.1804C16.6181 16.1404 16.5881 16.0204 16.5481 15.8204L16.4581 15.7304V15.5204L16.5181 15.4004C16.3981 15.1804 16.2081 15.0704 15.9481 15.0704C15.9481 15.0704 15.8981 15.0904 15.7981 15.1304L15.6181 15.1004C15.5581 15.0804 15.4981 15.0704 15.4381 15.0704L15.0781 15.1304C14.9581 15.1504 14.8681 15.1704 14.8081 15.1904C14.7681 15.2104 14.7381 15.2204 14.7181 15.2204C14.6981 15.2404 14.6481 15.2304 14.5681 15.1904C14.4881 15.1504 14.4381 15.1304 14.4181 15.1304L14.2981 15.1904C14.1781 15.2304 14.1081 15.2504 14.0881 15.2504L14.0581 15.3404C14.0781 15.3404 14.0981 15.3504 14.1181 15.3704C14.1381 15.3704 14.1681 15.3804 14.2081 15.4004V15.5204L14.0581 15.4604C13.9981 15.5204 13.9681 15.5704 13.9681 15.6104C14.0481 15.6704 14.1181 15.7704 14.1781 15.9104L14.0881 16.1504C14.0681 16.2304 14.0481 16.3104 14.0281 16.3904C14.0081 16.4504 13.9881 16.5004 13.9681 16.5404C13.9881 16.6004 13.9981 16.7404 13.9981 16.9604C13.8781 17.4604 13.8181 17.6904 13.8181 17.6504C13.8181 17.6704 13.8281 17.7104 13.8481 17.7704C13.8681 17.8104 13.8881 17.8704 13.9081 17.9504L13.9681 18.2504C13.9681 18.2504 13.9381 18.3004 13.8781 18.4004C13.8181 18.4804 13.7881 18.5504 13.7881 18.6104V18.6704C13.7881 18.7504 13.8181 18.8504 13.8781 18.9704V19.0304C13.8781 19.1304 13.7781 19.1804 13.5781 19.1804C13.5781 19.1804 13.4981 19.1704 13.3381 19.1504L13.0681 19.0904C13.0281 19.1104 12.9781 19.1304 12.9181 19.1504C12.8581 19.1704 12.7881 19.1804 12.7081 19.1804H12.4681L11.4481 19.3604C11.3881 19.3804 11.3281 19.3904 11.2681 19.3904C11.2081 19.3904 11.1581 19.3904 11.1181 19.3904ZM15.1681 2.08043C15.1881 2.04043 15.1781 2.00043 15.1381 1.96043C15.1181 1.94043 15.0681 1.95043 14.9881 1.99043C15.0281 2.05043 15.0881 2.08043 15.1681 2.08043ZM16.6081 5.20043C16.7481 5.20043 16.8381 5.15043 16.8781 5.05043C16.8581 5.07043 16.8381 5.01043 16.8181 4.87043L16.6381 4.90043C16.5781 4.90043 16.5281 4.93043 16.4881 4.99043C16.4681 5.01043 16.4781 5.06043 16.5181 5.14043C16.5581 5.18043 16.5881 5.20043 16.6081 5.20043ZM13.0981 7.51043C13.0981 7.49043 13.0681 7.45043 13.0081 7.39043L12.9481 7.45043C12.9681 7.47043 12.9881 7.48043 13.0081 7.48043C13.0481 7.48043 13.0781 7.49043 13.0981 7.51043ZM15.1981 12.4304L15.6181 12.2804C15.6781 12.2604 15.7481 12.1904 15.8281 12.0704L15.7681 11.2004C15.6081 11.1004 15.5481 10.8104 15.5881 10.3304L15.4981 10.2404L15.3781 9.70043C15.3781 9.72043 15.4081 9.64043 15.4681 9.46043L15.2881 9.31043L15.5581 9.19043L15.3181 9.07043C15.3181 8.97043 15.2881 8.85043 15.2281 8.71043C15.1881 8.61043 15.1581 8.53043 15.1381 8.47043C15.1181 8.39043 15.0981 8.32043 15.0781 8.26043C15.0781 8.02043 15.1381 7.84043 15.2581 7.72043L14.9881 7.66043L14.7181 7.75043V7.81043C14.7181 7.89043 14.6581 7.96043 14.5381 8.02043C14.5381 8.18043 14.4981 8.27043 14.4181 8.29043C14.4181 8.37043 14.4181 8.46043 14.4181 8.56043C14.4381 8.66043 14.4581 8.78043 14.4781 8.92043C14.4781 8.94043 14.4481 9.00043 14.3881 9.10043L14.4181 9.25043C14.4181 9.27043 14.4181 9.30043 14.4181 9.34043C14.4381 9.36043 14.4481 9.39043 14.4481 9.43043C14.4481 9.49043 14.4381 9.55043 14.4181 9.61043C14.4181 9.67043 14.4181 9.74043 14.4181 9.82043C14.3981 9.94043 14.3881 10.0504 14.3881 10.1504C14.3881 10.2304 14.3881 10.3004 14.3881 10.3604L14.4181 10.8404C14.3981 10.9804 14.3081 11.1004 14.1481 11.2004L13.7881 11.4404C13.7081 11.5004 13.6481 11.5604 13.6081 11.6204C13.5681 11.6604 13.5381 11.7004 13.5181 11.7404H13.8181C13.8381 11.7204 13.8781 11.6904 13.9381 11.6504C14.0181 11.5904 14.0681 11.5604 14.0881 11.5604H14.1181C14.1981 11.5604 14.2581 11.6404 14.2981 11.8004C14.3181 12.0204 14.3481 12.1504 14.3881 12.1904C14.9081 12.3504 15.1781 12.4304 15.1981 12.4304ZM13.1581 7.96043C13.1781 7.92043 13.1681 7.88043 13.1281 7.84043C13.1081 7.84043 13.0581 7.86043 12.9781 7.90043C13.0181 7.96043 13.0781 7.98043 13.1581 7.96043ZM12.7681 11.1704L13.0981 11.1404V10.9904L13.0081 10.8704C13.0081 10.8704 12.9481 10.8904 12.8281 10.9304L12.5281 10.8704C12.5681 10.9104 12.5181 10.9504 12.3781 10.9904C12.2381 11.0104 12.2081 11.0404 12.2881 11.0804H12.4681C12.5681 11.1404 12.6681 11.1704 12.7681 11.1704ZM17.8381 13.4504L17.8981 13.4204C17.9181 13.4204 17.9281 13.4204 17.9281 13.4204C17.9281 13.4004 17.9381 13.3904 17.9581 13.3904L17.8981 13.3004C17.8981 13.3604 17.8781 13.4104 17.8381 13.4504ZM17.8981 14.3204C17.8781 14.2804 17.8681 14.2104 17.8681 14.1104C17.9481 14.0904 18.0181 14.0204 18.0781 13.9004C18.0381 13.9004 17.9781 13.9004 17.8981 13.9004C17.8381 13.8804 17.7581 13.8604 17.6581 13.8404C17.5781 14.0004 17.5181 14.0904 17.4781 14.1104C17.4581 14.1304 17.4481 14.1604 17.4481 14.2004V14.2904L17.6581 14.1404L17.7181 14.2004L17.7481 14.3204H17.8981ZM16.7581 14.5004C16.7981 14.5004 16.8381 14.4804 16.8781 14.4404C16.9181 14.4004 16.9081 14.3604 16.8481 14.3204C16.7881 14.3204 16.7581 14.3804 16.7581 14.5004ZM18.3481 16.2404C18.3481 16.2004 18.3281 16.1604 18.2881 16.1204C18.2481 16.0804 18.2081 16.1004 18.1681 16.1804C18.1681 16.2404 18.2281 16.2604 18.3481 16.2404ZM11.5081 18.1604L11.7481 18.0704C11.9281 18.0104 11.9581 17.9404 11.8381 17.8604H11.7481C11.6681 17.8604 11.5881 17.9004 11.5081 17.9804V18.1604ZM12.1381 18.7604C12.1581 18.7204 12.1481 18.6804 12.1081 18.6404C12.0881 18.6204 12.0381 18.6304 11.9581 18.6704C11.9981 18.7304 12.0581 18.7604 12.1381 18.7604Z" fill="#F65C5C"/>
<path d="M4.77016 19.4199L4.56016 19.3299C4.44016 19.3299 4.34016 19.3199 4.26016 19.2999L3.96016 19.0899C3.84016 19.0899 3.78016 19.1299 3.78016 19.2099C3.76016 19.2699 3.72016 19.2999 3.66016 19.2999L3.42016 19.1799C3.42016 19.1999 3.37016 19.2199 3.27016 19.2399C3.21016 19.1399 3.12016 19.0499 3.00016 18.9699C3.00016 18.9699 2.95016 18.9899 2.85016 19.0299C2.77016 18.9899 2.65016 18.8999 2.49016 18.7599L2.22016 18.4899L2.01016 18.5199C1.99016 18.4799 1.96016 18.4299 1.92016 18.3699C1.88016 18.2899 1.84016 18.2099 1.80016 18.1299C1.80016 18.0899 1.74016 18.0299 1.62016 17.9499L1.50016 17.5599C1.50016 17.5399 1.47016 17.5199 1.41016 17.4999C1.39016 17.5199 1.35016 17.5299 1.29016 17.5299C1.25016 17.5299 1.21016 17.4999 1.17016 17.4399L1.02016 16.8099C1.00016 16.7299 0.980156 16.6599 0.960156 16.5999C0.960156 16.5199 0.960156 16.4599 0.960156 16.4199L0.870156 16.2999C0.870156 16.2599 0.860156 16.1999 0.840156 16.1199C0.820156 16.0399 0.800156 15.9399 0.780156 15.8199L0.720156 15.4599C0.740156 15.2599 0.750156 15.1299 0.750156 15.0699C0.750156 15.0099 0.760156 14.9999 0.780156 15.0399L1.02016 14.9199C0.940156 14.8799 0.880156 14.8599 0.840156 14.8599L0.870156 14.6199L0.720156 14.4699C0.700156 14.3699 0.680156 14.2699 0.660156 14.1699C0.660156 14.0499 0.670156 13.9499 0.690156 13.8699L0.720156 13.7499H0.870156C0.930156 13.6499 0.960156 13.5399 0.960156 13.4199L0.750156 13.2999C0.750156 13.2399 0.750156 13.1699 0.750156 13.0899C0.750156 13.0099 0.740156 12.9299 0.720156 12.8499C0.740156 12.6699 0.760156 12.5099 0.780156 12.3699C0.800156 12.2299 0.820156 12.1199 0.840156 12.0399C0.860156 11.9999 0.930156 11.9199 1.05016 11.7999C0.990156 11.7399 0.930156 11.6999 0.870156 11.6799V11.5299C0.930156 11.4699 0.970156 11.4099 0.990156 11.3499C1.03016 11.2499 1.07016 11.0899 1.11016 10.8699C1.13016 10.8499 1.19016 10.8399 1.29016 10.8399L1.50016 10.8699C1.50016 10.8699 1.52016 10.8499 1.56016 10.8099L1.44016 10.5999C1.40016 10.5999 1.37016 10.6099 1.35016 10.6299C1.27016 10.6499 1.22016 10.6999 1.20016 10.7799C1.04016 10.7599 0.960156 10.6499 0.960156 10.4499L1.02016 9.42992C1.12016 9.26992 1.17016 9.08992 1.17016 8.88992L1.08016 8.55992C1.10016 8.51992 1.11016 8.46992 1.11016 8.40992C1.11016 8.32992 1.12016 8.24992 1.14016 8.16992L1.35016 8.04992C1.31016 8.04992 1.27016 8.03992 1.23016 8.01992L1.26016 7.59992C1.28016 7.59992 1.30016 7.56992 1.32016 7.50992C1.32016 7.48992 1.26016 7.41992 1.14016 7.29992L1.29016 6.39992C1.35016 6.33992 1.39016 6.27992 1.41016 6.21992C1.45016 6.07992 1.50016 5.97992 1.56016 5.91992C1.64016 5.83992 1.68016 5.76992 1.68016 5.70992L1.65016 5.64992C1.65016 5.62992 1.65016 5.57992 1.65016 5.49992C1.65016 5.41992 1.66016 5.30992 1.68016 5.16992C1.68016 5.10992 1.67016 5.04992 1.65016 4.98992C1.65016 4.90992 1.65016 4.82992 1.65016 4.74992C1.65016 4.44992 1.68016 4.05992 1.74016 3.57992C1.76016 3.57992 1.80016 3.60992 1.86016 3.66992H1.92016C1.94016 3.66992 1.95016 3.64992 1.95016 3.60992L1.89016 3.39992L1.83016 3.15992C1.83016 3.07992 1.86016 2.99992 1.92016 2.91992C2.00016 2.87992 2.08016 2.81992 2.16016 2.73992L2.28016 2.28992C2.34016 2.20992 2.48016 2.11992 2.70016 2.01992C2.70016 2.13992 2.75016 2.19992 2.85016 2.19992H2.91016C3.01016 2.19992 3.06016 2.13992 3.06016 2.01992L2.97016 1.71992L3.48016 1.26992L3.51016 1.23992C3.55016 1.23992 3.69016 1.33992 3.93016 1.53992L3.96016 1.50992C4.00016 1.46992 4.02016 1.42992 4.02016 1.38992C4.02016 1.24992 4.00016 1.19992 3.96016 1.23992L3.99016 1.05992H4.35016L4.56016 0.969921C4.66016 0.92992 4.72016 0.919921 4.74016 0.93992L4.89016 0.999922C4.89016 1.01992 4.89016 1.04992 4.89016 1.08992C4.89016 1.12992 4.88016 1.18992 4.86016 1.26992L4.95016 1.29992C5.03016 1.29992 5.08016 1.25992 5.10016 1.17992V0.969921C5.10016 0.92992 5.09016 0.88992 5.07016 0.84992C5.07016 0.80992 5.07016 0.77992 5.07016 0.75992C5.17016 0.699921 5.28016 0.679921 5.40016 0.699921L5.70016 0.789921L6.00016 0.729921L6.27016 0.669922C6.33016 0.669922 6.43016 0.709922 6.57016 0.789921C6.57016 0.809922 6.63016 0.819921 6.75016 0.819921H7.11016L7.47016 0.90992C7.49016 0.929919 7.51016 0.94992 7.53016 0.969921C7.55016 0.989921 7.58016 1.00992 7.62016 1.02992L7.74016 0.999922H7.83016C7.95016 0.999922 8.14016 1.14992 8.40016 1.44992L8.70016 1.53992C8.74016 1.57992 8.78016 1.62992 8.82016 1.68992C9.00016 1.76992 9.12016 1.88992 9.18016 2.04992C9.20016 2.06992 9.21016 2.16992 9.21016 2.34992C9.25016 2.48992 9.32016 2.59992 9.42016 2.67992C9.44016 2.69992 9.48016 2.72992 9.54016 2.76992C9.60016 2.80992 9.69016 2.84992 9.81016 2.88992C9.93016 3.06992 9.98016 3.19992 9.96016 3.27992C9.96016 3.29992 9.88016 3.35992 9.72016 3.45992C9.56016 3.55992 9.48016 3.61992 9.48016 3.63992C9.48016 3.67992 9.49016 3.73992 9.51016 3.81992C9.53016 3.87992 9.58016 3.93992 9.66016 3.99992L9.87016 4.17992C9.89016 4.17992 9.90016 4.18992 9.90016 4.20992C9.94016 4.24992 9.96016 4.29992 9.96016 4.35992L10.0802 4.41992L10.1702 5.22992L10.0802 6.72992C10.0602 6.74992 10.0402 6.76992 10.0202 6.78992C10.0002 6.80992 9.98016 6.83992 9.96016 6.87992C9.96016 6.95992 9.95016 7.04992 9.93016 7.14992C9.93016 7.24992 9.92016 7.36992 9.90016 7.50992L9.84016 7.62992L9.63016 7.59992C9.57016 7.61992 9.47016 7.62992 9.33016 7.62992C9.29016 7.62992 9.21016 7.59992 9.09016 7.53992C8.97016 7.47992 8.89016 7.44992 8.85016 7.44992C8.71016 7.46992 8.56016 7.49992 8.40016 7.53992C8.24016 7.55992 8.07016 7.57992 7.89016 7.59992C7.83016 7.53992 7.77016 7.49992 7.71016 7.47992C7.67016 7.49992 7.59016 7.50992 7.47016 7.50992L6.87016 7.41992C6.77016 7.31992 6.72016 7.20992 6.72016 7.08992C6.72016 7.02992 6.78016 6.92992 6.90016 6.78992L6.87016 6.63992C6.89016 6.61992 6.90016 6.58992 6.90016 6.54992C6.90016 6.50992 6.91016 6.45992 6.93016 6.39992C6.91016 5.99992 6.96016 5.55992 7.08016 5.07992C7.02016 5.03992 6.94016 4.95992 6.84016 4.83992C6.98016 4.79992 7.14016 4.71992 7.32016 4.59992V4.47992L7.23016 4.44992C7.23016 4.44992 7.15016 4.50992 6.99016 4.62992L6.87016 4.59992L6.90016 4.17992C6.98016 4.13992 7.05016 4.08992 7.11016 4.02992C7.11016 3.90992 7.08016 3.80992 7.02016 3.72992L6.69016 4.02992L6.42016 3.84992C6.32016 3.80992 6.18016 3.77992 6.00016 3.75992C5.98016 3.77992 5.94016 3.78992 5.88016 3.78992C5.86016 3.78992 5.80016 3.73992 5.70016 3.63992L5.16016 4.05992C5.00016 4.19992 4.90016 4.34992 4.86016 4.50992C4.74016 4.50992 4.68016 4.59992 4.68016 4.77992L4.77016 5.16992C4.77016 5.24992 4.73016 5.31992 4.65016 5.37992C4.55016 5.33992 4.48016 5.23992 4.44016 5.07992L4.35016 5.04992L4.29016 5.16992C4.29016 5.22992 4.35016 5.30992 4.47016 5.40992L4.65016 5.52992C4.65016 5.64992 4.64016 5.74992 4.62016 5.82992L4.71016 6.36992L4.56016 6.78992V7.14992L4.38016 7.38992V7.50992C4.38016 7.74992 4.30016 7.91992 4.14016 8.01992C4.22016 8.01992 4.33016 8.07992 4.47016 8.19992L4.08016 9.09992C4.10016 9.15992 4.10016 9.34992 4.08016 9.66992L3.96016 11.5599L4.11016 13.4199C4.11016 13.4799 4.05016 13.5899 3.93016 13.7499C3.95016 13.7699 3.97016 13.7999 3.99016 13.8399C4.03016 13.8799 4.08016 13.9199 4.14016 13.9599V14.0499L3.87016 14.1399C3.87016 14.1599 3.88016 14.1899 3.90016 14.2299C3.92016 14.2499 3.94016 14.2799 3.96016 14.3199L4.02016 14.4999C3.90016 14.5799 3.80016 14.7799 3.72016 15.0999C3.80016 15.1199 3.86016 15.2199 3.90016 15.3999C3.94016 15.5799 3.93016 15.6999 3.87016 15.7599C3.89016 15.7799 4.00016 15.7899 4.20016 15.7899V15.9399L4.11016 16.0599C4.13016 16.0799 4.17016 16.1099 4.23016 16.1499C4.29016 16.1899 4.37016 16.2299 4.47016 16.2699C4.47016 16.3699 4.52016 16.4999 4.62016 16.6599L4.74016 16.6299L4.83016 16.5999C4.83016 16.5999 4.89016 16.6199 5.01016 16.6599H5.10016C5.20016 16.6599 5.28016 16.6299 5.34016 16.5699C5.34016 16.5499 5.37016 16.5299 5.43016 16.5099C5.47016 16.4699 5.49016 16.4499 5.49016 16.4499V16.4199C5.45016 16.4199 5.43016 16.4199 5.43016 16.4199L5.34016 16.4499C5.36016 16.4299 5.39016 16.4199 5.43016 16.4199L5.58016 16.3599L5.79016 16.2999C5.81016 16.2999 5.83016 16.3099 5.85016 16.3299C5.85016 16.3499 5.86016 16.3599 5.88016 16.3599C5.94016 16.3599 5.99016 16.3099 6.03016 16.2099C6.07016 16.1699 6.08016 16.0899 6.06016 15.9699C6.26016 15.8499 6.30016 15.6899 6.18016 15.4899C6.28016 15.2699 6.32016 14.9999 6.30016 14.6799L6.39016 13.2999C6.47016 13.2599 6.55016 13.1999 6.63016 13.1199C6.73016 12.9999 6.79016 12.9199 6.81016 12.8799C6.81016 12.8799 6.80016 12.8799 6.78016 12.8799C6.76016 12.8799 6.69016 12.8199 6.57016 12.6999C6.55016 12.6399 6.49016 12.5799 6.39016 12.5199L5.76016 12.4899C5.72016 12.5299 5.68016 12.5499 5.64016 12.5499L5.46016 12.4599C5.44016 12.4599 5.42016 12.4699 5.40016 12.4899C5.40016 12.4899 5.39016 12.4899 5.37016 12.4899L5.22016 12.5199C5.20016 12.5199 5.17016 12.4999 5.13016 12.4599C5.11016 12.4399 5.07016 12.4299 5.01016 12.4299C4.99016 12.4499 4.92016 12.4599 4.80016 12.4599L4.74016 12.3399L4.77016 12.0699L4.74016 11.8899V11.8299C4.74016 11.7499 4.78016 11.6499 4.86016 11.5299C4.94016 11.4299 4.98016 11.3599 4.98016 11.3199L4.86016 11.0799L4.95016 10.8999L4.86016 10.6299C4.92016 10.5699 5.04016 10.4799 5.22016 10.3599C5.22016 10.3399 5.19016 10.2999 5.13016 10.2399C5.13016 10.2399 5.08016 10.2699 4.98016 10.3299H4.83016V10.1799C4.85016 10.1599 4.87016 10.1399 4.89016 10.1199C4.91016 10.0799 4.93016 10.0499 4.95016 10.0299C4.95016 10.0299 4.97016 9.95992 5.01016 9.81992C5.17016 9.71992 5.27016 9.66992 5.31016 9.66992L5.49016 9.75992C5.59016 9.81992 5.65016 9.84992 5.67016 9.84992L5.79016 9.81992C5.83016 9.79992 5.88016 9.78992 5.94016 9.78992L7.17016 9.72992C7.29016 9.74992 7.36016 9.81992 7.38016 9.93992L7.47016 10.2399C7.51016 10.2199 7.62016 10.1599 7.80016 10.0599C7.92016 9.93992 8.02016 9.89992 8.10016 9.93992L8.37016 10.0299C8.41016 10.0099 8.45016 9.99992 8.49016 9.99992C8.53016 9.99992 8.58016 9.98992 8.64016 9.96992C8.74016 9.98992 8.83016 10.0199 8.91016 10.0599C9.01016 10.0799 9.11016 10.0999 9.21016 10.1199H9.27016C9.43016 10.1199 9.57016 10.0499 9.69016 9.90992C9.79016 9.94992 9.83016 10.0699 9.81016 10.2699L9.63016 10.9899L9.69016 11.1099C9.71016 11.1699 9.72016 11.2399 9.72016 11.3199C9.70016 11.4599 9.65016 11.5299 9.57016 11.5299L9.48016 11.4999C9.46016 11.5199 9.45016 11.5499 9.45016 11.5899C9.45016 11.5899 9.47016 11.6099 9.51016 11.6499H9.63016C9.63016 11.7299 9.62016 11.8199 9.60016 11.9199C9.60016 12.0199 9.59016 12.1399 9.57016 12.2799C9.51016 12.3399 9.47016 12.3999 9.45016 12.4599L9.48016 12.5499C9.48016 12.6499 9.48016 12.7899 9.48016 12.9699C9.50016 13.1499 9.52016 13.3799 9.54016 13.6599C9.48016 13.7199 9.39016 13.7499 9.27016 13.7499C9.23016 13.7299 9.19016 13.7399 9.15016 13.7799C9.11016 13.8199 9.10016 13.8499 9.12016 13.8699C9.16016 13.9099 9.22016 13.9199 9.30016 13.8999C9.32016 13.8799 9.35016 13.8899 9.39016 13.9299C9.43016 14.2099 9.45016 14.4599 9.45016 14.6799C9.47016 14.8999 9.47016 15.0899 9.45016 15.2499L9.36016 15.7599C9.34016 15.8799 9.32016 15.9899 9.30016 16.0899C9.28016 16.1699 9.27016 16.2399 9.27016 16.2999L9.24016 16.5699C9.20016 16.5699 9.11016 16.5899 8.97016 16.6299C8.85016 16.6499 8.79016 16.6799 8.79016 16.7199C8.79016 16.7799 8.95016 16.8199 9.27016 16.8399V16.9599C9.27016 17.0199 9.27016 17.0899 9.27016 17.1699C9.27016 17.2299 9.26016 17.3099 9.24016 17.4099C9.18016 17.7499 9.16016 17.9799 9.18016 18.0999C9.18016 18.1399 9.16016 18.1799 9.12016 18.2199C9.14016 18.2599 9.15016 18.3299 9.15016 18.4299V18.5199C9.07016 18.5599 9.00016 18.6099 8.94016 18.6699C8.92016 18.6499 8.90016 18.6299 8.88016 18.6099C8.86016 18.5899 8.84016 18.5699 8.82016 18.5499C8.78016 18.5499 8.74016 18.5699 8.70016 18.6099L8.67016 18.8799L8.76016 18.9099C8.82016 18.9099 8.93016 18.8599 9.09016 18.7599L9.12016 18.9399L9.00016 19.3299C8.86016 19.3099 8.72016 19.2999 8.58016 19.2999C8.46016 19.2999 8.35016 19.2899 8.25016 19.2699L7.95016 19.2099C7.95016 19.1899 7.99016 19.1799 8.07016 19.1799C8.09016 19.1999 8.13016 19.1799 8.19016 19.1199L8.22016 19.0299C8.14016 18.9499 8.05016 18.8999 7.95016 18.8799C7.85016 19.0199 7.76016 19.0999 7.68016 19.1199C7.64016 19.1599 7.62016 19.1999 7.62016 19.2399C7.56016 19.2799 7.45016 19.2799 7.29016 19.2399C7.25016 19.2799 7.22016 19.1399 7.20016 18.8199L7.17016 18.5199C7.13016 18.4799 7.07016 18.4599 6.99016 18.4599C6.89016 18.4599 6.83016 18.4699 6.81016 18.4899L6.54016 18.7899C6.52016 18.8099 6.48016 18.8299 6.42016 18.8499C6.38016 18.8699 6.33016 18.8899 6.27016 18.9099C6.23016 18.9699 6.15016 19.0499 6.03016 19.1499L5.70016 19.2699C5.62016 19.2699 5.53016 19.2699 5.43016 19.2699C5.33016 19.2699 5.21016 19.2799 5.07016 19.2999C5.05016 19.3199 5.00016 19.3499 4.92016 19.3899C4.84016 19.4299 4.79016 19.4399 4.77016 19.4199ZM4.14016 3.75992C4.18016 3.77992 4.22016 3.76992 4.26016 3.72992C4.30016 3.68992 4.30016 3.64992 4.26016 3.60992C4.22016 3.60992 4.18016 3.65992 4.14016 3.75992ZM3.57016 4.74992C3.63016 4.74992 3.76016 4.67992 3.96016 4.53992C3.84016 4.51992 3.75016 4.47992 3.69016 4.41992L3.51016 4.26992C3.53016 4.42992 3.54016 4.54992 3.54016 4.62992C3.56016 4.70992 3.57016 4.74992 3.57016 4.74992ZM9.15016 4.77992C9.19016 4.79992 9.25016 4.76992 9.33016 4.68992C9.31016 4.66992 9.28016 4.65992 9.24016 4.65992C9.18016 4.65992 9.15016 4.69992 9.15016 4.77992ZM8.55016 5.52992C8.57016 5.48992 8.56016 5.44992 8.52016 5.40992C8.50016 5.36992 8.46016 5.37992 8.40016 5.43992C8.40016 5.49992 8.45016 5.52992 8.55016 5.52992ZM8.28016 6.99992H8.31016C8.43016 6.99992 8.53016 6.93992 8.61016 6.81992C8.73016 6.81992 8.83016 6.75992 8.91016 6.63992L8.49016 6.18992L8.28016 6.39992C8.32016 6.51992 8.32016 6.71992 8.28016 6.99992ZM3.78016 7.08992L3.81016 6.93992H3.75016V7.08992H3.78016ZM3.81016 7.23992L3.84016 7.17992L3.81016 7.14992L3.75016 7.23992H3.81016ZM6.84016 10.5399C6.90016 10.4599 6.91016 10.3899 6.87016 10.3299L6.66016 10.2999V10.5099L6.84016 10.5399ZM6.81016 10.8399C6.83016 10.8199 6.88016 10.8099 6.96016 10.8099V10.7499C6.96016 10.7299 6.95016 10.7199 6.93016 10.7199C6.93016 10.7199 6.93016 10.7099 6.93016 10.6899C6.85016 10.7099 6.81016 10.7599 6.81016 10.8399ZM2.85016 11.2899C2.87016 11.2699 2.88016 11.2299 2.88016 11.1699C2.86016 11.1499 2.82016 11.1399 2.76016 11.1399C2.80016 11.2199 2.83016 11.2699 2.85016 11.2899ZM2.49016 12.4299L2.52016 12.2799C2.46016 12.2199 2.41016 12.0999 2.37016 11.9199C2.37016 11.7999 2.30016 11.7399 2.16016 11.7399H2.04016L2.01016 11.8599C2.01016 11.8799 2.01016 11.8999 2.01016 11.9199C2.03016 11.9199 2.04016 11.9299 2.04016 11.9499L2.07016 12.0399C2.07016 12.0799 2.07016 12.1299 2.07016 12.1899C2.07016 12.2299 2.08016 12.2899 2.10016 12.3699C2.12016 12.3499 2.18016 12.3399 2.28016 12.3399L2.49016 12.4299ZM2.97016 12.7899C3.01016 12.7499 3.03016 12.7199 3.03016 12.6999C3.03016 12.6399 2.98016 12.6099 2.88016 12.6099C2.86016 12.6699 2.89016 12.7299 2.97016 12.7899ZM7.41016 13.7499L7.53016 13.6899L7.47016 13.5999C7.45016 13.6199 7.44016 13.6399 7.44016 13.6599C7.44016 13.6799 7.43016 13.7099 7.41016 13.7499ZM6.75016 15.9099C6.69016 15.9699 6.65016 16.0299 6.63016 16.0899C6.63016 16.1299 6.67016 16.1899 6.75016 16.2699V15.9099ZM1.14016 16.2399C1.20016 16.2599 1.26016 16.2299 1.32016 16.1499C1.28016 16.1099 1.25016 16.0899 1.23016 16.0899C1.17016 16.0899 1.14016 16.1399 1.14016 16.2399ZM5.91016 16.5999V16.4799C5.89016 16.4599 5.85016 16.4499 5.79016 16.4499L5.76016 16.5099C5.76016 16.5499 5.77016 16.5799 5.79016 16.5999H5.91016ZM7.50016 16.5999C7.52016 16.5599 7.51016 16.5199 7.47016 16.4799C7.43016 16.4399 7.39016 16.4399 7.35016 16.4799C7.35016 16.5199 7.40016 16.5599 7.50016 16.5999ZM1.53016 17.0799C1.63016 17.0399 1.69016 16.9699 1.71016 16.8699C1.73016 16.8299 1.72016 16.7899 1.68016 16.7499H1.59016L1.53016 17.0799ZM6.03016 16.9299C6.03016 16.8499 6.01016 16.8099 5.97016 16.8099L5.85016 16.7799L5.79016 16.8999L6.03016 16.9299ZM5.55016 18.2499C5.63016 18.2499 5.70016 18.1899 5.76016 18.0699L5.70016 18.0099C5.56016 18.0299 5.47016 18.0599 5.43016 18.0999C5.45016 18.1199 5.47016 18.1399 5.49016 18.1599C5.51016 18.1799 5.53016 18.2099 5.55016 18.2499Z" fill="#F65C5C"/>
</svg>
