<svg width="48" height="48" viewBox="0 0 48 48" fill="none" xmlns="http://www.w3.org/2000/svg">
<path d="M34.4439 34.4439C42.5765 26.3113 42.5765 13.1556 34.4439 5.26226L5.26226 34.4439C13.1556 42.5765 26.3113 42.5765 34.4439 34.4439ZM33.4871 11.9597C34.9223 11.9597 35.879 12.9165 35.879 14.3516C35.879 15.7868 34.9223 16.7435 33.4871 16.7435C32.0519 16.7435 31.0952 15.7868 31.0952 14.3516C31.0952 12.9165 32.0519 11.9597 33.4871 11.9597ZM33.4871 21.5274C34.9223 21.5274 35.879 22.4842 35.879 23.9194C35.879 25.3545 34.9223 26.3113 33.4871 26.3113C32.0519 26.3113 31.0952 25.3545 31.0952 23.9194C31.0952 22.4842 32.0519 21.5274 33.4871 21.5274ZM23.9194 21.5274C25.3545 21.5274 26.3113 22.4842 26.3113 23.9194C26.3113 25.3545 25.3545 26.3113 23.9194 26.3113C22.4842 26.3113 21.5274 25.3545 21.5274 23.9194C21.5274 22.4842 22.4842 21.5274 23.9194 21.5274ZM23.9194 31.0952C25.3545 31.0952 26.3113 32.0519 26.3113 33.4871C26.3113 34.9223 25.3545 35.879 23.9194 35.879C22.4842 35.879 21.5274 34.9223 21.5274 33.4871C21.5274 32.0519 22.4842 31.0952 23.9194 31.0952ZM14.3516 35.879C12.9165 35.879 11.9597 34.9223 11.9597 33.4871C11.9597 32.0519 12.9165 31.0952 14.3516 31.0952C15.7868 31.0952 16.7436 32.0519 16.7436 33.4871C16.7436 34.9223 15.7868 35.879 14.3516 35.879ZM39.7061 39.7061C28.7032 50.709 11.0029 50.709 0 39.7061L3.34871 36.3574C12.4381 45.4468 27.0289 45.4468 36.1182 36.3574C45.2076 27.2681 45.2076 12.6773 36.1182 3.5879L39.7061 0C50.4698 11.0029 50.4698 28.7032 39.7061 39.7061Z" fill="#F65C5C"/>
</svg>
