<svg width="48" height="48" viewBox="0 0 48 48" fill="none" xmlns="http://www.w3.org/2000/svg">
<path d="M42.0127 29.4556L47.0928 27.1681C41.4495 14.6917 31.1275 4.93387 18.3539 0L18.2536 0.259946L16.356 5.20264L16.3671 5.20635C27.7534 9.63176 36.9574 18.3347 42.0127 29.4556ZM1.30138 47.8747L38.1989 31.2493C33.5461 21.0176 25.0785 13.0097 14.6032 8.93472L14.5921 8.93101L11.5581 16.8111C11.6621 16.8037 11.7512 16.7517 11.8589 16.7517C12.5128 16.7478 13.1574 16.9065 13.7348 17.2136C14.3121 17.5208 14.804 17.9666 15.1661 18.5111C15.5283 19.0555 15.7494 19.6815 15.8096 20.3327C15.8697 20.9838 15.767 21.6397 15.5107 22.2413C15.2543 22.8429 14.8524 23.3713 14.3411 23.779C13.8298 24.1866 13.2252 24.4608 12.5816 24.5767C11.938 24.6926 11.2757 24.6466 10.6543 24.443C10.0329 24.2393 9.47191 23.8844 9.02179 23.41L0.0610695 46.7049C-0.00386047 46.8756 -0.0167885 47.0617 0.0239258 47.2398C0.06464 47.4178 0.157169 47.5798 0.289837 47.7053C0.422504 47.8309 0.589375 47.9143 0.769398 47.9451C0.949421 47.9759 1.13453 47.9527 1.30138 47.8784V47.8747ZM19.609 27.9294C19.5939 27.469 19.6715 27.0103 19.8372 26.5806C20.0029 26.1508 20.2534 25.7588 20.5737 25.4278C20.8939 25.0968 21.2775 24.8336 21.7016 24.6538C22.1257 24.4741 22.5816 24.3814 23.0422 24.3814C23.5028 24.3814 23.9587 24.4741 24.3827 24.6538C24.8068 24.8336 25.1904 25.0968 25.5107 25.4278C25.831 25.7588 26.0814 26.1508 26.2472 26.5806C26.4129 27.0103 26.4905 27.469 26.4753 27.9294C26.446 28.8204 26.0715 29.665 25.4308 30.285C24.7902 30.9049 23.9336 31.2514 23.0422 31.2514C22.1507 31.2514 21.2942 30.9049 20.6535 30.285C20.0129 29.665 19.6383 28.8204 19.609 27.9294ZM8.40534 35.4678C8.40535 34.6149 8.72266 33.7925 9.29554 33.1607C9.86841 32.5288 10.6559 32.1326 11.5047 32.0493C12.3535 31.966 13.203 32.2014 13.8878 32.7098C14.5726 33.2181 15.0438 33.9631 15.2097 34.7997C15.3756 35.6363 15.2244 36.5047 14.7854 37.236C14.3463 37.9672 13.651 38.509 12.8346 38.7558C12.0182 39.0027 11.1392 38.937 10.3685 38.5716C9.59788 38.2061 8.99076 37.567 8.66529 36.7787C8.49078 36.3625 8.40236 35.9154 8.40534 35.4641V35.4678Z" fill="#F6B23C"/>
</svg>
