<svg width="56" height="51" viewBox="0 0 56 51" fill="none" xmlns="http://www.w3.org/2000/svg">
<path d="M26.4315 4.24708e-07C29.1668 -0.000711793 31.8271 0.894364 34.0056 2.54839C36.1842 4.20241 37.7611 6.52438 38.4954 9.1593L38.6401 9.72966L43.8429 8.43034C44.2232 8.33568 44.6192 8.32243 45.0049 8.39145C45.3907 8.46047 45.7575 8.61021 46.0814 8.83085C46.4053 9.0515 46.6789 9.33807 46.8843 9.67181C47.0897 10.0055 47.2223 10.3789 47.2734 10.7675L47.2985 11.1292V16.1651C48.8678 17.6683 50.1533 19.4421 51.0935 21.4014L51.4774 22.2583H52.863C53.5444 22.2584 54.2022 22.5086 54.7114 22.9614C55.2207 23.4143 55.546 24.0383 55.6258 24.7151L55.6452 25.0406V33.3875C55.6453 33.8454 55.5323 34.2963 55.3164 34.7001C55.1004 35.1039 54.7881 35.4482 54.4071 35.7023L54.1067 35.8748L50.857 37.5025C49.5289 40.0779 47.6014 42.2964 45.2368 43.9713L44.5162 44.4554V47.2989C44.5161 47.9804 44.2659 48.6381 43.8131 49.1474C43.3602 49.6566 42.7362 49.982 42.0595 50.0617L41.7339 50.0812H33.3871C32.7057 50.0811 32.0479 49.8309 31.5387 49.3781C31.0294 48.9252 30.7041 48.3012 30.6244 47.6244L30.6049 47.2989H27.8226C27.8225 47.9804 27.5723 48.6381 27.1195 49.1474C26.6667 49.6566 26.0427 49.982 25.3659 50.0617L25.0404 50.0812H16.6936C16.0121 50.0811 15.3544 49.8309 14.8451 49.3781C14.3359 48.9252 14.0105 48.3012 13.9308 47.6244L13.9113 47.2989V44.4554C11.9005 43.1713 10.1637 41.502 8.80092 39.5438C7.43811 37.5855 6.47624 35.3769 5.97073 33.0452C4.3297 32.5577 2.87828 31.5773 1.81322 30.237C0.748163 28.8967 0.12098 27.2613 0.0166937 25.5525L0 25.0406V23.6495C0.000786566 22.9403 0.272325 22.2582 0.759136 21.7426C1.24595 21.2269 1.91128 20.9166 2.61921 20.875C3.32713 20.8335 4.02421 21.0638 4.56801 21.519C5.11181 21.9741 5.46129 22.6197 5.54505 23.3239L5.56452 23.6495V25.0406C5.56823 25.4561 5.6517 25.841 5.81493 26.1952C6.23893 23.6902 7.186 21.3025 8.59444 19.1879C10.0029 17.0733 11.8411 15.2793 13.9892 13.9226C13.7918 12.1711 13.9664 10.3976 14.5017 8.71829C15.0369 7.03894 15.9207 5.49152 17.0952 4.17728C18.2697 2.86305 19.7084 1.81161 21.3173 1.09176C22.9262 0.371911 24.6689 -0.000122201 26.4315 4.24708e-07ZM41.7339 14.6905L34.0605 16.6103L33.7266 16.6743L33.3871 16.6937H23.6492C20.836 16.6919 18.1041 17.6375 15.8941 19.3782C13.6841 21.1189 12.1247 23.5532 11.4673 26.2886C10.81 29.024 11.0931 31.901 12.2709 34.4559C13.4487 37.0107 15.4526 39.0944 17.9595 40.371C18.3634 40.5775 18.7107 40.8797 18.9711 41.2511C19.2315 41.6226 19.3972 42.0521 19.4536 42.5022L19.4758 42.8472V44.5166H22.2581C22.2582 43.8351 22.5084 43.1774 22.9612 42.6681C23.4141 42.1589 24.038 41.8335 24.7148 41.7538L25.0404 41.7343H33.3871C34.0686 41.7344 34.7264 41.9846 35.2356 42.4375C35.7449 42.8903 36.0702 43.5143 36.1499 44.1911L36.1694 44.5166H38.9517V42.8472C38.9519 42.3349 39.0936 41.8326 39.3612 41.3956C39.6288 40.9587 40.0118 40.6041 40.468 40.371C43.0215 39.0645 45.0516 36.9244 46.2217 34.3056C46.4305 33.8373 46.7646 33.4358 47.1872 33.1454L47.5183 32.9506L50.0807 31.668V27.8229H49.5048C48.899 27.8227 48.3098 27.6248 47.8267 27.2592C47.3436 26.8936 46.993 26.3804 46.8283 25.7974C46.1329 23.3495 44.7082 21.1716 42.7439 19.5539C42.199 19.1038 41.8459 18.4632 41.7562 17.7621L41.7339 17.4088V14.6905ZM38.9517 22.2583C39.6896 22.2583 40.3973 22.5514 40.919 23.0732C41.4408 23.595 41.7339 24.3027 41.7339 25.0406C41.7339 25.7785 41.4408 26.4862 40.919 27.008C40.3973 27.5298 39.6896 27.8229 38.9517 27.8229C38.2138 27.8229 37.5061 27.5298 36.9843 27.008C36.4625 26.4862 36.1694 25.7785 36.1694 25.0406C36.1694 24.3027 36.4625 23.595 36.9843 23.0732C37.5061 22.5514 38.2138 22.2583 38.9517 22.2583ZM26.4315 5.56458C24.7463 5.56457 23.1183 6.1764 21.8502 7.28637C20.5822 8.39634 19.7602 9.92894 19.537 11.5994C20.8853 11.2858 22.265 11.128 23.6492 11.1292H33.0449L33.2397 11.0819C32.9097 9.52088 32.0532 8.12077 30.8137 7.11626C29.5741 6.11176 28.0269 5.56391 26.4315 5.56458Z" fill="#E55F4B"/>
</svg>
