<svg width="17" height="25" viewBox="0 0 17 25" fill="none" xmlns="http://www.w3.org/2000/svg">
<path d="M4.85645 22.9796H12.1409M8.49867 22.9796V16.9092" stroke="#F65C5C" stroke-width="2.21737" stroke-linecap="round"/>
<mask id="mask0_60_1053" style="mask-type:luminance" maskUnits="userSpaceOnUse" x="0" y="7" width="17" height="12">
<path d="M13.666 10.5234C13.6622 11.0316 13.6552 11.2169 13.6367 11.3584C13.5226 12.2216 13.1274 13.023 12.5117 13.6387C11.9724 14.178 11.2908 14.5487 10.5498 14.709L10.2324 14.7637C10.0278 14.7904 9.732 14.7979 8.49805 14.7979C7.26449 14.7978 6.96929 14.7904 6.76465 14.7637H6.76367C5.90121 14.6493 5.1006 14.2539 4.48535 13.6387C3.86963 13.0229 3.47343 12.2216 3.35938 11.3584H3.36035C3.34187 11.2168 3.3349 11.032 3.33105 10.5234H13.666Z" fill="white" stroke="#FFF94C" stroke-width="6.65209"/>
</mask>
<g mask="url(#mask0_60_1053)">
<path d="M0 8.75857C0 8.43562 1.15331e-07 8.27415 0.030352 8.1406C0.0812495 7.91795 0.193918 7.71418 0.355415 7.55268C0.516912 7.39118 0.720688 7.27851 0.943336 7.22762C1.07688 7.19727 1.23836 7.19727 1.5613 7.19727H15.4357C15.7587 7.19727 15.9202 7.19727 16.0537 7.22762C16.2764 7.27851 16.4801 7.39118 16.6416 7.55268C16.8031 7.71418 16.9158 7.91795 16.9667 8.1406C16.997 8.27415 16.997 8.43562 16.997 8.75857V9.62541C16.997 10.7533 16.997 11.3166 16.9351 11.7901C16.7259 13.3801 15.9978 14.8567 14.8638 15.9907C13.7298 17.1247 12.2532 17.8528 10.6632 18.062C10.1897 18.1239 9.62761 18.1239 8.49852 18.1239C7.36943 18.1239 6.80732 18.1239 6.33383 18.062C4.74379 17.8528 3.26725 17.1247 2.13323 15.9907C0.999219 14.8567 0.271132 13.3801 0.0619179 11.7901C1.44729e-07 11.3166 0 10.7545 0 9.62541V8.75857Z" stroke="#F65C5C" stroke-width="4.65" stroke-linecap="round"/>
</g>
<path d="M8.23828 12.4102C8.20219 12.4251 8.16632 12.4375 8.12988 12.4424C8.06878 12.4506 8.0061 12.445 7.94531 12.4258C7.88439 12.4065 7.82395 12.3726 7.76855 12.3232C7.74029 12.2981 7.71373 12.2689 7.68945 12.2363L8.23828 12.4102ZM10.3047 5.28906L8.72363 11.4014L7.71777 11.083L9.29785 4.97168L10.3047 5.28906ZM10.0049 4.03125L9.58398 3.89844C9.60602 3.82452 9.62679 3.75127 9.65234 3.68066L10.0049 4.03125ZM15.3018 1.9043L11.9258 3.39648L11.5068 2.2373L14.8828 0.746094L15.3018 1.9043ZM10.6387 3.09863L10.3311 2.79199C10.3834 2.75871 10.4384 2.72901 10.4941 2.69922L10.6387 3.09863Z" fill="#F65C5C" stroke="#F65C5C" stroke-width="1.10868"/>
</svg>
